<svg  viewBox="0 0 16 17" fill="none" xmlns="http://www.w3.org/2000/svg">
<path d="M10.6667 16.3132C10.4867 16.3132 10.32 16.2132 10.2334 16.0599C10.1467 15.9065 10.1467 15.7132 10.24 15.5599L10.94 14.3932C11.08 14.1532 11.3867 14.0798 11.6267 14.2198C11.8667 14.3598 11.94 14.6665 11.8 14.9065L11.62 15.2065C13.46 14.7732 14.84 13.1198 14.84 11.1465C14.84 10.8732 15.0667 10.6465 15.34 10.6465C15.6134 10.6465 15.84 10.8732 15.84 11.1465C15.8334 13.9932 13.5134 16.3132 10.6667 16.3132Z" fill="white"/>
<path d="M0.666748 6.31315C0.393415 6.31315 0.166748 6.08648 0.166748 5.81315C0.166748 2.96648 2.48675 0.646484 5.33342 0.646484C5.51341 0.646484 5.68008 0.746488 5.76675 0.899821C5.85342 1.05315 5.85341 1.24649 5.76008 1.39982L5.06008 2.56649C4.92008 2.80649 4.61342 2.87983 4.37342 2.73983C4.13342 2.59983 4.06008 2.29318 4.20008 2.05318L4.38008 1.75317C2.54008 2.18651 1.16008 3.83982 1.16008 5.81315C1.16675 6.08648 0.940081 6.31315 0.666748 6.31315Z" fill="white"/>
<path d="M6.28666 11.2197H4.41333C4.14 11.2197 3.91333 10.9931 3.91333 10.7197V9.21973C3.91333 8.94639 4.14 8.71973 4.41333 8.71973H6.28666C6.95333 8.71973 7.54 9.3064 7.54 9.97306C7.54 10.6531 6.97333 11.2197 6.28666 11.2197ZM4.91333 10.2197H6.28666C6.42666 10.2197 6.54 10.1064 6.54 9.96639C6.54 9.86639 6.42666 9.71305 6.28666 9.71305H4.91333V10.2197Z" fill="white"/>
<path d="M6.55316 12.7197H4.40649C4.13316 12.7197 3.90649 12.4931 3.90649 12.2197V10.7197C3.90649 10.4464 4.13316 10.2197 4.40649 10.2197H6.55316C7.29983 10.2197 7.91316 10.7797 7.91316 11.4731C7.91316 12.1664 7.30649 12.7197 6.55316 12.7197ZM4.91316 11.7197H6.55983C6.77316 11.7197 6.91983 11.5864 6.91983 11.4664C6.91983 11.3464 6.77316 11.2131 6.55983 11.2131H4.91316V11.7197Z" fill="white"/>
<path d="M5.61328 13.4667C5.33995 13.4667 5.11328 13.24 5.11328 12.9667V12.2134C5.11328 11.94 5.33995 11.7134 5.61328 11.7134C5.88661 11.7134 6.11328 11.94 6.11328 12.2134V12.9667C6.11328 13.2467 5.88661 13.4667 5.61328 13.4667Z" fill="white"/>
<path d="M5.61328 9.7133C5.33995 9.7133 5.11328 9.48663 5.11328 9.2133V8.45996C5.11328 8.18663 5.33995 7.95996 5.61328 7.95996C5.88661 7.95996 6.11328 8.18663 6.11328 8.45996V9.2133C6.11328 9.4933 5.88661 9.7133 5.61328 9.7133Z" fill="white"/>
<path d="M5.78008 15.3331C3.23341 15.3331 1.16675 13.2598 1.16675 10.7198C1.16675 8.17981 3.24008 6.10645 5.78008 6.10645C5.90008 6.10645 6.00675 6.11313 6.12675 6.11979C8.38675 6.29313 10.2134 8.11979 10.3801 10.3665C10.3867 10.5131 10.3934 10.6131 10.3934 10.7198C10.4001 13.2598 8.32675 15.3331 5.78008 15.3331ZM5.78008 7.09981C3.78675 7.09981 2.16675 8.7198 2.16675 10.7131C2.16675 12.7065 3.78675 14.3265 5.78008 14.3265C7.77341 14.3265 9.40008 12.7065 9.40008 10.7131C9.40008 10.6265 9.39342 10.5398 9.38675 10.4531C9.25342 8.66646 7.82008 7.23978 6.06008 7.10645C5.97341 7.10645 5.88008 7.09981 5.78008 7.09981Z" fill="white"/>
<path d="M10.22 10.9H9.89336C9.63336 10.9 9.41336 10.7 9.39336 10.44C9.26002 8.67332 7.83336 7.24665 6.06669 7.11332C5.80669 7.09332 5.60669 6.87332 5.60669 6.61332V6.28666C5.60669 3.74 7.68002 1.67334 10.2267 1.67334C12.7734 1.67334 14.84 3.74666 14.84 6.28666C14.84 8.82666 12.76 10.9 10.22 10.9ZM6.60002 6.17334C8.48002 6.51334 9.98669 8.01332 10.3267 9.89998C12.2734 9.83998 13.8334 8.24 13.8334 6.28666C13.8334 4.29333 12.2134 2.67334 10.22 2.67334C8.26002 2.66667 6.66002 4.22667 6.60002 6.17334Z" fill="white"/>
</svg>
