<svg viewBox="0 0 71 26" fill="none" xmlns="http://www.w3.org/2000/svg">
<g opacity="0.5">
<path d="M17.538 13.333C17.8673 13.385 18.1663 13.5193 18.435 13.736C18.7123 13.9527 18.929 14.2213 19.085 14.542C19.2497 14.8627 19.332 15.205 19.332 15.569C19.332 16.0283 19.215 16.4443 18.981 16.817C18.747 17.181 18.4047 17.4713 17.954 17.688C17.512 17.896 16.9877 18 16.381 18H13.001V8.939H16.251C16.8663 8.939 17.3907 9.043 17.824 9.251C18.2573 9.45033 18.5823 9.72333 18.799 10.07C19.0157 10.4167 19.124 10.8067 19.124 11.24C19.124 11.7773 18.9767 12.2237 18.682 12.579C18.396 12.9257 18.0147 13.177 17.538 13.333ZM14.184 12.852H16.173C16.7277 12.852 17.1567 12.722 17.46 12.462C17.7633 12.202 17.915 11.8423 17.915 11.383C17.915 10.9237 17.7633 10.564 17.46 10.304C17.1567 10.044 16.719 9.914 16.147 9.914H14.184V12.852ZM16.277 17.025C16.8663 17.025 17.3257 16.8863 17.655 16.609C17.9843 16.3317 18.149 15.946 18.149 15.452C18.149 14.9493 17.9757 14.555 17.629 14.269C17.2823 13.9743 16.8187 13.827 16.238 13.827H14.184V17.025H16.277ZM22.1567 12.033C22.3647 11.6257 22.6593 11.3093 23.0407 11.084C23.4307 10.8587 23.903 10.746 24.4577 10.746V11.968H24.1457C22.8197 11.968 22.1567 12.6873 22.1567 14.126V18H20.9737V10.876H22.1567V12.033ZM28.9303 18.117C28.2629 18.117 27.6563 17.9653 27.1103 17.662C26.5729 17.3587 26.1483 16.9297 25.8363 16.375C25.5329 15.8117 25.3813 15.1617 25.3813 14.425C25.3813 13.697 25.5373 13.0557 25.8493 12.501C26.1699 11.9377 26.6033 11.5087 27.1493 11.214C27.6953 10.9107 28.3063 10.759 28.9823 10.759C29.6583 10.759 30.2693 10.9107 30.8153 11.214C31.3613 11.5087 31.7903 11.9333 32.1023 12.488C32.4229 13.0427 32.5833 13.6883 32.5833 14.425C32.5833 15.1617 32.4186 15.8117 32.0893 16.375C31.7686 16.9297 31.3309 17.3587 30.7763 17.662C30.2216 17.9653 29.6063 18.117 28.9303 18.117ZM28.9303 17.077C29.3549 17.077 29.7536 16.9773 30.1263 16.778C30.4989 16.5787 30.7979 16.2797 31.0233 15.881C31.2573 15.4823 31.3743 14.997 31.3743 14.425C31.3743 13.853 31.2616 13.3677 31.0363 12.969C30.8109 12.5703 30.5163 12.2757 30.1523 12.085C29.7883 11.8857 29.3939 11.786 28.9693 11.786C28.5359 11.786 28.1373 11.8857 27.7733 12.085C27.4179 12.2757 27.1319 12.5703 26.9153 12.969C26.6986 13.3677 26.5903 13.853 26.5903 14.425C26.5903 15.0057 26.6943 15.4953 26.9023 15.894C27.1189 16.2927 27.4049 16.5917 27.7603 16.791C28.1156 16.9817 28.5056 17.077 28.9303 17.077ZM43.6287 10.876L41.4057 18H40.1837L38.4677 12.345L36.7517 18H35.5297L33.2937 10.876H34.5027L36.1407 16.856L37.9087 10.876H39.1177L40.8467 16.869L42.4587 10.876H43.6287ZM47.3248 18.117C46.7788 18.117 46.2891 18.026 45.8558 17.844C45.4224 17.6533 45.0801 17.3933 44.8288 17.064C44.5774 16.726 44.4388 16.3403 44.4128 15.907H45.6348C45.6694 16.2623 45.8341 16.5527 46.1288 16.778C46.4321 17.0033 46.8264 17.116 47.3118 17.116C47.7624 17.116 48.1178 17.0163 48.3778 16.817C48.6378 16.6177 48.7678 16.3663 48.7678 16.063C48.7678 15.751 48.6291 15.5213 48.3518 15.374C48.0744 15.218 47.6454 15.0663 47.0648 14.919C46.5361 14.7803 46.1028 14.6417 45.7648 14.503C45.4354 14.3557 45.1494 14.1433 44.9068 13.866C44.6728 13.58 44.5558 13.2073 44.5558 12.748C44.5558 12.384 44.6641 12.0503 44.8808 11.747C45.0974 11.4437 45.4051 11.2053 45.8038 11.032C46.2024 10.85 46.6574 10.759 47.1688 10.759C47.9574 10.759 48.5944 10.9583 49.0798 11.357C49.5651 11.7557 49.8251 12.3017 49.8598 12.995H48.6768C48.6508 12.6223 48.4991 12.3233 48.2218 12.098C47.9531 11.8727 47.5891 11.76 47.1298 11.76C46.7051 11.76 46.3671 11.851 46.1158 12.033C45.8644 12.215 45.7388 12.4533 45.7388 12.748C45.7388 12.982 45.8124 13.177 45.9598 13.333C46.1158 13.4803 46.3064 13.6017 46.5318 13.697C46.7658 13.7837 47.0864 13.8833 47.4938 13.996C48.0051 14.1347 48.4211 14.2733 48.7418 14.412C49.0624 14.542 49.3354 14.7413 49.5608 15.01C49.7948 15.2787 49.9161 15.6297 49.9248 16.063C49.9248 16.453 49.8164 16.804 49.5998 17.116C49.3831 17.428 49.0754 17.675 48.6768 17.857C48.2868 18.0303 47.8361 18.117 47.3248 18.117ZM58.0948 14.165C58.0948 14.3903 58.0818 14.6287 58.0558 14.88H52.3618C52.4051 15.582 52.6434 16.1323 53.0768 16.531C53.5188 16.921 54.0518 17.116 54.6758 17.116C55.1871 17.116 55.6118 16.999 55.9498 16.765C56.2964 16.5223 56.5391 16.2017 56.6778 15.803H57.9518C57.7611 16.4877 57.3798 17.0467 56.8078 17.48C56.2358 17.9047 55.5251 18.117 54.6758 18.117C53.9998 18.117 53.3931 17.9653 52.8558 17.662C52.3271 17.3587 51.9111 16.9297 51.6078 16.375C51.3044 15.8117 51.1528 15.1617 51.1528 14.425C51.1528 13.6883 51.3001 13.0427 51.5948 12.488C51.8894 11.9333 52.3011 11.5087 52.8298 11.214C53.3671 10.9107 53.9824 10.759 54.6758 10.759C55.3518 10.759 55.9498 10.9063 56.4698 11.201C56.9898 11.4957 57.3884 11.903 57.6658 12.423C57.9518 12.9343 58.0948 13.515 58.0948 14.165ZM56.8728 13.918C56.8728 13.4673 56.7731 13.0817 56.5738 12.761C56.3744 12.4317 56.1014 12.1847 55.7548 12.02C55.4168 11.8467 55.0398 11.76 54.6238 11.76C54.0258 11.76 53.5144 11.9507 53.0898 12.332C52.6738 12.7133 52.4354 13.242 52.3748 13.918H56.8728Z" fill="black"/>
<rect x="0.5" y="0.5" width="70" height="25" rx="4.5" stroke="black"/>
</g>
</svg>
