<svg  viewBox="0 0 16 18" fill="none" xmlns="http://www.w3.org/2000/svg">
<path d="M13.737 1H2.59562C2.1561 1 1.7998 1.3563 1.7998 1.79581V16.1204C1.7998 16.56 2.1561 16.9163 2.59562 16.9163H13.737C14.1765 16.9163 14.5328 16.56 14.5328 16.1204V1.79581C14.5328 1.3563 14.1765 1 13.737 1Z" stroke="#E35151" stroke-width="1.65" stroke-linecap="round" stroke-linejoin="round"/>
<path d="M4.1875 5.57525C4.1875 4.58634 4.98917 3.78467 5.97808 3.78467H10.355C11.344 3.78467 12.1456 4.58634 12.1456 5.57525V5.57525C12.1456 6.56416 11.344 7.36583 10.355 7.36583H5.97808C4.98917 7.36583 4.1875 6.56416 4.1875 5.57525V5.57525Z" stroke="#E35151" stroke-width="1.65" stroke-linecap="round" stroke-linejoin="round"/>
<path d="M5.38029 10.5496C5.8198 10.5496 6.1761 10.1933 6.1761 9.75382C6.1761 9.31431 5.8198 8.95801 5.38029 8.95801C4.94077 8.95801 4.58447 9.31431 4.58447 9.75382C4.58447 10.1933 4.94077 10.5496 5.38029 10.5496Z" fill="#E35050"/>
<path d="M5.38029 12.9373C5.8198 12.9373 6.1761 12.581 6.1761 12.1415C6.1761 11.702 5.8198 11.3457 5.38029 11.3457C4.94077 11.3457 4.58447 11.702 4.58447 12.1415C4.58447 12.581 4.94077 12.9373 5.38029 12.9373Z" fill="#E35050"/>
<path d="M5.38029 15.3245C5.8198 15.3245 6.1761 14.9682 6.1761 14.5287C6.1761 14.0892 5.8198 13.7329 5.38029 13.7329C4.94077 13.7329 4.58447 14.0892 4.58447 14.5287C4.58447 14.9682 4.94077 15.3245 5.38029 15.3245Z" fill="#E35050"/>
<path d="M8.16593 10.5496C8.60545 10.5496 8.96174 10.1933 8.96174 9.75382C8.96174 9.31431 8.60545 8.95801 8.16593 8.95801C7.72641 8.95801 7.37012 9.31431 7.37012 9.75382C7.37012 10.1933 7.72641 10.5496 8.16593 10.5496Z" fill="#E35050"/>
<path d="M8.16593 12.9373C8.60545 12.9373 8.96174 12.581 8.96174 12.1415C8.96174 11.702 8.60545 11.3457 8.16593 11.3457C7.72641 11.3457 7.37012 11.702 7.37012 12.1415C7.37012 12.581 7.72641 12.9373 8.16593 12.9373Z" fill="#E35050"/>
<path d="M8.16593 15.3245C8.60545 15.3245 8.96174 14.9682 8.96174 14.5287C8.96174 14.0892 8.60545 13.7329 8.16593 13.7329C7.72641 13.7329 7.37012 14.0892 7.37012 14.5287C7.37012 14.9682 7.72641 15.3245 8.16593 15.3245Z" fill="#E35050"/>
<path d="M10.9506 10.5496C11.3901 10.5496 11.7464 10.1933 11.7464 9.75382C11.7464 9.31431 11.3901 8.95801 10.9506 8.95801C10.5111 8.95801 10.1548 9.31431 10.1548 9.75382C10.1548 10.1933 10.5111 10.5496 10.9506 10.5496Z" fill="#E35050"/>
<path d="M10.9506 12.9373C11.3901 12.9373 11.7464 12.581 11.7464 12.1415C11.7464 11.702 11.3901 11.3457 10.9506 11.3457C10.5111 11.3457 10.1548 11.702 10.1548 12.1415C10.1548 12.581 10.5111 12.9373 10.9506 12.9373Z" fill="#E35050"/>
<path d="M10.9506 15.3245C11.3901 15.3245 11.7464 14.9682 11.7464 14.5287C11.7464 14.0892 11.3901 13.7329 10.9506 13.7329C10.5111 13.7329 10.1548 14.0892 10.1548 14.5287C10.1548 14.9682 10.5111 15.3245 10.9506 15.3245Z" fill="#E35050"/>
</svg>
