<svg  viewBox="0 0 12 10" fill="none" xmlns="http://www.w3.org/2000/svg">
<path d="M11.5917 1.12589C11.5142 1.04779 11.4221 0.985791 11.3205 0.943483C11.219 0.901176 11.11 0.879395 11 0.879395C10.89 0.879395 10.7811 0.901176 10.6796 0.943483C10.578 0.985791 10.4858 1.04779 10.4084 1.12589L4.20004 7.34256L1.59171 4.72589C1.51127 4.64819 1.41632 4.5871 1.31227 4.5461C1.20823 4.50509 1.09713 4.48498 0.985308 4.48692C0.873491 4.48885 0.76315 4.51279 0.660584 4.55737C0.558019 4.60195 0.465238 4.66629 0.387539 4.74673C0.309841 4.82716 0.248746 4.92211 0.207742 5.02616C0.166739 5.1302 0.14663 5.24131 0.148565 5.35312C0.150499 5.46494 0.174439 5.57528 0.219017 5.67785C0.263595 5.78041 0.327938 5.87319 0.408373 5.95089L3.60837 9.15089C3.68584 9.229 3.77801 9.29099 3.87956 9.3333C3.98111 9.37561 4.09003 9.39739 4.20004 9.39739C4.31005 9.39739 4.41897 9.37561 4.52052 9.3333C4.62207 9.29099 4.71424 9.229 4.79171 9.15089L11.5917 2.35089C11.6763 2.27286 11.7438 2.17815 11.79 2.07273C11.8361 1.96732 11.86 1.85348 11.86 1.73839C11.86 1.62331 11.8361 1.50947 11.79 1.40405C11.7438 1.29864 11.6763 1.20393 11.5917 1.12589Z" fill="white"/>
</svg>
