<svg  viewBox="0 0 11 12" fill="none" xmlns="http://www.w3.org/2000/svg">
<path d="M3.52002 1.59741V7.73659C3.52002 8.00796 3.63409 8.26821 3.83714 8.4601C4.04019 8.65198 4.31558 8.75979 4.60273 8.75979H8.93358C9.22073 8.75979 9.49612 8.65198 9.69917 8.4601C9.90222 8.26821 10.0163 8.00796 10.0163 7.73659V3.25602C10.0163 3.1197 9.98743 2.98477 9.93147 2.85914C9.87551 2.73351 9.79354 2.61971 9.69039 2.52443L7.8958 0.86583C7.69353 0.678921 7.42188 0.574252 7.13898 0.574219H4.60273C4.31558 0.574219 4.04019 0.682019 3.83714 0.873906C3.63409 1.06579 3.52002 1.32605 3.52002 1.59741Z" stroke="black" stroke-linecap="round" stroke-linejoin="round"/>
<path d="M7.85076 8.75941V9.78261C7.85076 10.054 7.73669 10.3142 7.53364 10.5061C7.3306 10.698 7.0552 10.8058 6.76805 10.8058H2.4372C2.15005 10.8058 1.87466 10.698 1.67161 10.5061C1.46856 10.3142 1.35449 10.054 1.35449 9.78261V4.15503C1.35449 3.88366 1.46856 3.62341 1.67161 3.43152C1.87466 3.23964 2.15005 3.13184 2.4372 3.13184H3.51992" stroke="black" stroke-linecap="round" stroke-linejoin="round"/>
</svg>
