<svg  viewBox="0 0 26 26" fill="none" xmlns="http://www.w3.org/2000/svg">
<rect width="26" height="26" rx="13" fill="#E44848" fill-opacity="0.2"/>
<path d="M15.3373 15.0641C14.8852 15.0641 14.5104 14.6892 14.5104 14.2372V10.6539H10.927C10.475 10.6539 10.1001 10.279 10.1001 9.82693C10.1001 9.37487 10.475 9 10.927 9H15.3373C15.7893 9 16.1642 9.37487 16.1642 9.82693V14.2372C16.1642 14.6892 15.7893 15.0641 15.3373 15.0641Z" fill="#E44848"/>
<path d="M9.82417 16.1669C9.61468 16.1669 9.40519 16.0897 9.23981 15.9243C8.92006 15.6045 8.92006 15.0753 9.23981 14.7556L14.7526 9.24274C15.0724 8.92299 15.6016 8.92299 15.9214 9.24274C16.2411 9.56248 16.2411 10.0917 15.9214 10.4115L10.4085 15.9243C10.2431 16.0897 10.0337 16.1669 9.82417 16.1669Z" fill="#E44848"/>
</svg>
