<svg  viewBox="0 0 32 51" fill="none" xmlns="http://www.w3.org/2000/svg">
<path fill-rule="evenodd" clip-rule="evenodd" d="M31.9999 10.401V32.3588C31.9999 33.5848 31.5182 34.7606 30.6609 35.6276C29.8036 36.4945 28.6409 36.9815 27.4284 36.9815H25.1427V34.6702H27.4284C28.0346 34.6702 28.616 34.4266 29.0447 33.9932C29.4733 33.5597 29.7141 32.9718 29.7141 32.3588V10.401H25.1427C24.2334 10.401 23.3613 10.0358 22.7184 9.38558C22.0754 8.73539 21.7141 7.85354 21.7141 6.93403V2.31134H9.14272C8.53651 2.31134 7.95513 2.55486 7.52647 2.98832C7.09782 3.42178 6.857 4.00968 6.857 4.62269V25.4248H4.57129V4.62269C4.57129 3.39668 5.05292 2.22088 5.91023 1.35395C6.76754 0.487032 7.9303 0 9.14272 0L21.7141 0L31.9999 10.401Z" fill="#177DFF"/>
<path d="M3.97949 30.7549C3.6377 30.7549 3.33171 30.8167 3.06152 30.9404C2.7946 31.0641 2.56836 31.2432 2.38281 31.4775C2.19727 31.7087 2.05566 31.9902 1.95801 32.3223C1.86035 32.651 1.81152 33.0221 1.81152 33.4355C1.81152 33.9889 1.88965 34.4658 2.0459 34.8662C2.20215 35.2633 2.43978 35.5693 2.75879 35.7842C3.0778 35.9958 3.48145 36.1016 3.96973 36.1016C4.27246 36.1016 4.56706 36.0723 4.85352 36.0137C5.13997 35.9551 5.4362 35.8753 5.74219 35.7744V36.7705C5.45247 36.8844 5.15951 36.9674 4.86328 37.0195C4.56706 37.0716 4.22526 37.0977 3.83789 37.0977C3.10872 37.0977 2.50326 36.9463 2.02148 36.6436C1.54297 36.3408 1.1849 35.9144 0.947266 35.3643C0.712891 34.8141 0.595703 34.1696 0.595703 33.4307C0.595703 32.8903 0.670573 32.3955 0.820312 31.9463C0.970052 31.4971 1.18815 31.1097 1.47461 30.7842C1.76107 30.4554 2.11426 30.2031 2.53418 30.0273C2.95736 29.8483 3.44076 29.7588 3.98438 29.7588C4.34245 29.7588 4.69401 29.7995 5.03906 29.8809C5.38737 29.959 5.70964 30.0713 6.00586 30.2178L5.5957 31.1846C5.34831 31.0674 5.08952 30.9665 4.81934 30.8818C4.54915 30.7972 4.26921 30.7549 3.97949 30.7549ZM11.3965 35.0566C11.3965 35.4798 11.2923 35.8444 11.084 36.1504C10.8789 36.4564 10.5827 36.6908 10.1953 36.8535C9.8112 37.0163 9.35221 37.0977 8.81836 37.0977C8.55794 37.0977 8.30892 37.083 8.07129 37.0537C7.83366 37.0244 7.60905 36.9821 7.39746 36.9268C7.18913 36.8682 6.9987 36.7982 6.82617 36.7168V35.6133C7.11589 35.7402 7.43978 35.8558 7.79785 35.96C8.15592 36.0609 8.52051 36.1113 8.8916 36.1113C9.19434 36.1113 9.44499 36.0723 9.64355 35.9941C9.84538 35.9128 9.99512 35.7988 10.0928 35.6523C10.1904 35.5026 10.2393 35.3285 10.2393 35.1299C10.2393 34.9183 10.1823 34.7393 10.0684 34.5928C9.95443 34.4463 9.7819 34.3128 9.55078 34.1924C9.32292 34.0687 9.03646 33.9368 8.69141 33.7969C8.45703 33.7025 8.23242 33.5951 8.01758 33.4746C7.80599 33.3542 7.61719 33.2126 7.45117 33.0498C7.28516 32.887 7.15332 32.695 7.05566 32.4736C6.96126 32.249 6.91406 31.9854 6.91406 31.6826C6.91406 31.279 7.01009 30.9339 7.20215 30.6475C7.39746 30.361 7.6709 30.1413 8.02246 29.9883C8.37728 29.8353 8.79069 29.7588 9.2627 29.7588C9.63704 29.7588 9.98861 29.7979 10.3174 29.876C10.6494 29.9541 10.9749 30.0648 11.2939 30.208L10.9229 31.1504C10.6299 31.0299 10.3451 30.9339 10.0684 30.8623C9.79492 30.7907 9.51497 30.7549 9.22852 30.7549C8.98112 30.7549 8.77116 30.7923 8.59863 30.8672C8.42611 30.9421 8.29427 31.0479 8.20312 31.1846C8.11523 31.318 8.07129 31.4775 8.07129 31.6631C8.07129 31.8714 8.12174 32.0472 8.22266 32.1904C8.32682 32.3304 8.48633 32.459 8.70117 32.5762C8.91927 32.6934 9.19922 32.8236 9.54102 32.9668C9.9349 33.1296 10.2686 33.3005 10.542 33.4795C10.8187 33.6585 11.0303 33.8734 11.1768 34.124C11.3232 34.3714 11.3965 34.6823 11.3965 35.0566ZM18.0664 29.8613L15.5713 37H14.3311L11.8359 29.8613H13.0371L14.541 34.334C14.5866 34.4642 14.6354 34.6221 14.6875 34.8076C14.7428 34.9932 14.7933 35.1803 14.8389 35.3691C14.8877 35.5579 14.9251 35.7256 14.9512 35.8721C14.9772 35.7256 15.013 35.5579 15.0586 35.3691C15.1074 35.1803 15.1579 34.9932 15.21 34.8076C15.262 34.6221 15.3109 34.4626 15.3564 34.3291L16.8652 29.8613H18.0664Z" fill="#177DFF"/>
</svg>
