<svg  viewBox="0 0 17 15" fill="none" xmlns="http://www.w3.org/2000/svg">
<path d="M15.8713 9.88657C15.8713 12.0042 14.1546 13.7209 12.037 13.7209C11.3503 13.7209 10.7057 13.5404 10.1482 13.2242C9.1667 12.6676 8.4549 11.6905 8.2577 10.5377C8.2215 10.3261 8.20264 10.1085 8.20264 9.88657C8.20264 8.90203 8.57372 8.00414 9.18365 7.32516C9.8856 6.54373 10.9039 6.05225 12.037 6.05225C14.1546 6.05225 15.8713 7.76895 15.8713 9.88657Z" stroke="#E35151" stroke-linecap="round" stroke-linejoin="round"/>
<path d="M12.0366 2.60107V5.66853V6.05196C10.9036 6.05196 9.88529 6.54344 9.18334 7.32488C8.57342 8.00386 8.20233 8.90174 8.20233 9.88628C8.20233 10.1082 8.22119 10.3258 8.25739 10.5375C8.45459 11.6902 9.16639 12.6673 10.1479 13.2239C9.12701 13.5326 7.77197 13.7206 6.28517 13.7206C3.10871 13.7206 0.533691 12.8622 0.533691 11.8034V8.73598V5.66853V2.60107" stroke="#E35151" stroke-linecap="round" stroke-linejoin="round"/>
<path d="M12.0366 2.60124C12.0366 3.66005 9.46164 4.5184 6.28517 4.5184C3.10871 4.5184 0.533691 3.66005 0.533691 2.60124C0.533691 1.54243 3.10871 0.684082 6.28517 0.684082C9.46164 0.684082 12.0366 1.54243 12.0366 2.60124Z" stroke="#E35151" stroke-linecap="round" stroke-linejoin="round"/>
<path d="M0.533691 8.73584C0.533691 9.79465 3.10871 10.653 6.28517 10.653C6.97803 10.653 7.64225 10.6122 8.25739 10.5373" stroke="#E35151" stroke-linecap="round" stroke-linejoin="round"/>
<path d="M0.533691 5.66895C0.533691 6.72775 3.10871 7.58611 6.28517 7.58611C7.34202 7.58611 8.33231 7.49109 9.18334 7.32529" stroke="#E35151" stroke-linecap="round" stroke-linejoin="round"/>
<path d="M13.5704 9.42676L12.0367 10.9605L10.5029 9.42676" stroke="#E35151" stroke-linecap="round" stroke-linejoin="round"/>
</svg>
