<svg  viewBox="0 0 26 26" fill="none" xmlns="http://www.w3.org/2000/svg">
<path opacity="0.2" d="M25.9293 12.9998C25.9293 20.1417 20.1397 25.9314 12.9979 25.9314C5.856 25.9314 0.0664062 20.1417 0.0664062 12.9998C0.0664062 5.85795 5.856 0.0683594 12.9979 0.0683594C20.1397 0.0683594 25.9293 5.85795 25.9293 12.9998Z" fill="#00A478"/>
<path d="M12.898 19.25V18.116C11.218 17.962 10.042 16.982 10.014 15.498H11.372C11.442 16.226 11.904 16.912 12.898 17.066V13.566C11.498 13.202 10 12.796 10 10.864C10 9.352 11.148 8.274 12.898 8.162V7H13.654V8.162C15.25 8.302 16.272 9.24 16.412 10.654H15.054C14.97 10.052 14.508 9.422 13.654 9.24V12.656C15.04 13.006 16.538 13.412 16.538 15.358C16.538 16.66 15.558 17.99 13.654 18.116V19.25H12.898ZM15.264 15.428C15.264 14.434 14.55 14.042 13.654 13.776V17.08C14.69 16.968 15.264 16.268 15.264 15.428ZM11.302 10.794C11.302 11.788 12.002 12.166 12.898 12.446V9.212C11.96 9.296 11.302 9.8 11.302 10.794Z" fill="#27AE60"/>
</svg>
