<svg  viewBox="0 0 36 51" fill="none" xmlns="http://www.w3.org/2000/svg">
<path fill-rule="evenodd" clip-rule="evenodd" d="M35.9999 10.401V32.3588C35.9999 33.5848 35.5182 34.7606 34.6609 35.6276C33.8036 36.4945 32.6409 36.9815 31.4284 36.9815H29.1427V34.6702H31.4284C32.0346 34.6702 32.616 34.4266 33.0447 33.9932C33.4733 33.5597 33.7141 32.9718 33.7141 32.3588V10.401H29.1427C28.2334 10.401 27.3613 10.0358 26.7184 9.38558C26.0754 8.73539 25.7141 7.85354 25.7141 6.93403V2.31134H13.1427C12.5365 2.31134 11.9551 2.55486 11.5265 2.98832C11.0978 3.42178 10.857 4.00968 10.857 4.62269V25.4248H8.57129V4.62269C8.57129 3.39668 9.05292 2.22088 9.91023 1.35395C10.7675 0.487032 11.9303 0 13.1427 0L25.7141 0L35.9999 10.401Z" fill="#00A478"/>
<path d="M4.98047 37H0.9375V29.8613H4.98047V30.8477H2.10938V32.7861H4.7998V33.7676H2.10938V36.0088H4.98047V37ZM7.60254 34.2363L5.7959 31.5947H7.10449L8.33984 33.4941L9.58008 31.5947H10.8838L9.06738 34.2363L10.9766 37H9.66309L8.33984 34.9736L7.01172 37H5.70801L7.60254 34.2363ZM14.0918 37.0977C13.5807 37.0977 13.138 36.9984 12.7637 36.7998C12.3893 36.6012 12.1012 36.2969 11.8994 35.8867C11.6976 35.4766 11.5967 34.9557 11.5967 34.3242C11.5967 33.6667 11.7074 33.1296 11.9287 32.7129C12.1501 32.2962 12.4561 31.9886 12.8467 31.79C13.2406 31.5915 13.6914 31.4922 14.1992 31.4922C14.5215 31.4922 14.8128 31.5247 15.0732 31.5898C15.3369 31.6517 15.5599 31.7282 15.7422 31.8193L15.4004 32.7373C15.2018 32.6559 14.9984 32.5876 14.79 32.5322C14.5817 32.4769 14.3815 32.4492 14.1895 32.4492C13.8737 32.4492 13.61 32.5192 13.3984 32.6592C13.1901 32.7992 13.0339 33.0075 12.9297 33.2842C12.8288 33.5609 12.7783 33.9043 12.7783 34.3145C12.7783 34.7116 12.8304 35.0469 12.9346 35.3203C13.0387 35.5905 13.1934 35.7956 13.3984 35.9355C13.6035 36.0723 13.8558 36.1406 14.1553 36.1406C14.4515 36.1406 14.7168 36.1048 14.9512 36.0332C15.1855 35.9616 15.4069 35.8688 15.6152 35.7549V36.751C15.4102 36.8682 15.1904 36.9544 14.9561 37.0098C14.7217 37.0684 14.4336 37.0977 14.0918 37.0977ZM19.0381 31.4922C19.5199 31.4922 19.9333 31.5915 20.2783 31.79C20.6234 31.9886 20.8887 32.2702 21.0742 32.6348C21.2598 32.9993 21.3525 33.4355 21.3525 33.9434V34.5586H17.7441C17.7572 35.0827 17.8971 35.4863 18.1641 35.7695C18.4342 36.0527 18.8118 36.1943 19.2969 36.1943C19.6419 36.1943 19.9512 36.1618 20.2246 36.0967C20.5013 36.0283 20.7861 35.929 21.0791 35.7988V36.7314C20.8089 36.8584 20.5339 36.9512 20.2539 37.0098C19.974 37.0684 19.6387 37.0977 19.248 37.0977C18.7174 37.0977 18.2503 36.9951 17.8467 36.79C17.4463 36.5817 17.1322 36.2725 16.9043 35.8623C16.6797 35.4521 16.5674 34.9427 16.5674 34.334C16.5674 33.7285 16.6699 33.2142 16.875 32.791C17.0801 32.3678 17.3682 32.0456 17.7393 31.8242C18.1104 31.6029 18.5433 31.4922 19.0381 31.4922ZM19.0381 32.3564C18.6768 32.3564 18.3838 32.4736 18.1592 32.708C17.9378 32.9424 17.8076 33.2858 17.7686 33.7383H20.2295C20.2262 33.4681 20.1807 33.2288 20.0928 33.0205C20.0081 32.8122 19.8779 32.6494 19.7021 32.5322C19.5296 32.415 19.3083 32.3564 19.0381 32.3564ZM23.7988 37H22.6465V29.4023H23.7988V37Z" fill="#00A478"/>
</svg>
