<svg  viewBox="0 0 26 26" fill="none" xmlns="http://www.w3.org/2000/svg">
<path d="M7 12.3723V19.9019C7 20.1932 7.11148 20.4725 7.30992 20.6784C7.50836 20.8843 7.7775 21 8.05814 21H18.9419C19.2225 21 19.4916 20.8843 19.6901 20.6784C19.8885 20.4725 20 20.1932 20 19.9019V12.3723C20 12.0811 19.8885 11.8018 19.6901 11.5959C19.4916 11.3899 19.2225 11.2743 18.9419 11.2743H17.1279C17.0076 11.2743 16.8923 11.3238 16.8072 11.4121C16.7222 11.5003 16.6744 11.62 16.6744 11.7449C16.6744 11.8697 16.7222 11.9894 16.8072 12.0776C16.8923 12.1659 17.0076 12.2155 17.1279 12.2155H18.9419C18.982 12.2155 19.0204 12.232 19.0487 12.2614C19.0771 12.2908 19.093 12.3307 19.093 12.3723V19.9019C19.093 19.9435 19.0771 19.9834 19.0487 20.0129C19.0204 20.0423 18.982 20.0588 18.9419 20.0588H8.05814C8.01805 20.0588 7.9796 20.0423 7.95125 20.0129C7.9229 19.9834 7.90698 19.9435 7.90698 19.9019V12.3723C7.90698 12.3307 7.9229 12.2908 7.95125 12.2614C7.9796 12.232 8.01805 12.2155 8.05814 12.2155H9.87209C9.99237 12.2155 10.1077 12.1659 10.1928 12.0776C10.2778 11.9894 10.3256 11.8697 10.3256 11.7449C10.3256 11.62 10.2778 11.5003 10.1928 11.4121C10.1077 11.3238 9.99237 11.2743 9.87209 11.2743H8.05814C7.7775 11.2743 7.50836 11.3899 7.30992 11.5959C7.11148 11.8018 7 12.0811 7 12.3723ZM16.2028 8.94008L13.9535 6.60669V14.2547C13.9535 14.3795 13.9057 14.4992 13.8207 14.5875C13.7356 14.6757 13.6203 14.7253 13.5 14.7253C13.3797 14.7253 13.2644 14.6757 13.1793 14.5875C13.0943 14.4992 13.0465 14.3795 13.0465 14.2547V6.60669L10.7972 8.94008C10.7557 8.98632 10.7056 9.0234 10.65 9.04912C10.5944 9.07484 10.5343 9.08867 10.4734 9.08979C10.4125 9.0909 10.3521 9.07928 10.2956 9.05561C10.2391 9.03194 10.1878 8.99671 10.1448 8.95203C10.1017 8.90734 10.0678 8.85411 10.0449 8.79551C10.0221 8.73691 10.0109 8.67415 10.012 8.61096C10.0131 8.54777 10.0264 8.48546 10.0512 8.42773C10.076 8.37 10.1117 8.31805 10.1563 8.27496L13.1795 5.13763C13.2646 5.0495 13.3798 5 13.5 5C13.6202 5 13.7354 5.0495 13.8205 5.13763L16.8437 8.27496C16.8883 8.31805 16.924 8.37 16.9488 8.42773C16.9736 8.48546 16.9869 8.54777 16.988 8.61096C16.9891 8.67415 16.9779 8.73691 16.9551 8.79551C16.9322 8.85411 16.8983 8.90734 16.8552 8.95203C16.8122 8.99671 16.7609 9.03194 16.7044 9.05561C16.6479 9.07928 16.5875 9.0909 16.5266 9.08979C16.4657 9.08867 16.4056 9.07484 16.35 9.04912C16.2944 9.0234 16.2443 8.98632 16.2028 8.94008Z" fill="white"/>
</svg>
