<svg  viewBox="0 0 57 57" fill="none" xmlns="http://www.w3.org/2000/svg">
<path d="M28.5003 37.1213C25.3653 37.1213 22.8003 34.5562 22.8003 31.4212V25.555C22.8003 22.42 25.3653 19.855 28.5003 19.855C31.6353 19.855 34.2003 22.42 34.2003 25.555V31.4212C34.2003 34.58 31.6353 37.1213 28.5003 37.1213ZM28.5003 23.4413C27.3365 23.4413 26.3628 24.3913 26.3628 25.5788V31.445C26.3628 32.6325 27.3128 33.5826 28.5003 33.5826C29.6878 33.5826 30.6378 32.6325 30.6378 31.445V25.5788C30.6378 24.3913 29.664 23.4413 28.5003 23.4413Z" fill="url(#paint0_linear_569_1706)"/>
<path d="M28.5 44.6973C20.9712 44.6973 14.8438 38.5698 14.8438 31.041V25.9585C14.8438 18.4297 20.9712 12.3022 28.5 12.3022C35.53 12.3022 41.3725 17.5748 42.085 24.5573C42.18 25.5311 41.4675 26.4097 40.4938 26.5047C39.52 26.6234 38.6413 25.8872 38.5463 24.9135C38.0238 19.7597 33.7013 15.8647 28.5 15.8647C22.9425 15.8647 18.4062 20.401 18.4062 25.9585V31.041C18.4062 36.5985 22.9425 41.1348 28.5 41.1348C33.725 41.1348 38.1425 37.0497 38.57 31.8484C38.6412 30.8747 39.4963 30.1384 40.4938 30.2097C41.4675 30.2809 42.2037 31.1361 42.1325 32.1336C41.5625 39.1873 35.5775 44.6973 28.5 44.6973Z" fill="url(#paint1_linear_569_1706)"/>
<path d="M52.25 23.1562C51.2763 23.1562 50.4688 22.3487 50.4688 21.375V16.625C50.4688 10.4975 46.5025 6.53125 40.375 6.53125H35.625C34.6513 6.53125 33.8438 5.72375 33.8438 4.75C33.8438 3.77625 34.6513 2.96875 35.625 2.96875H40.375C48.545 2.96875 54.0312 8.455 54.0312 16.625V21.375C54.0312 22.3487 53.2237 23.1562 52.25 23.1562Z" fill="url(#paint2_linear_569_1706)"/>
<path d="M4.75 23.1562C3.77625 23.1562 2.96875 22.3487 2.96875 21.375V16.625C2.96875 8.455 8.455 2.96875 16.625 2.96875H21.375C22.3487 2.96875 23.1562 3.77625 23.1562 4.75C23.1562 5.72375 22.3487 6.53125 21.375 6.53125H16.625C10.4975 6.53125 6.53125 10.4975 6.53125 16.625V21.375C6.53125 22.3487 5.72375 23.1562 4.75 23.1562Z" fill="url(#paint3_linear_569_1706)"/>
<path d="M40.375 54.0312H35.625C34.6513 54.0312 33.8438 53.2237 33.8438 52.25C33.8438 51.2763 34.6513 50.4688 35.625 50.4688H40.375C46.5025 50.4688 50.4688 46.5025 50.4688 40.375V35.625C50.4688 34.6513 51.2763 33.8438 52.25 33.8438C53.2237 33.8438 54.0312 34.6513 54.0312 35.625V40.375C54.0312 48.545 48.545 54.0312 40.375 54.0312Z" fill="url(#paint4_linear_569_1706)"/>
<path d="M21.375 54.0312H16.625C8.455 54.0312 2.96875 48.545 2.96875 40.375V35.625C2.96875 34.6513 3.77625 33.8438 4.75 33.8438C5.72375 33.8438 6.53125 34.6513 6.53125 35.625V40.375C6.53125 46.5025 10.4975 50.4688 16.625 50.4688H21.375C22.3487 50.4688 23.1562 51.2763 23.1562 52.25C23.1562 53.2237 22.3487 54.0312 21.375 54.0312Z" fill="url(#paint5_linear_569_1706)"/>
<defs>
<linearGradient id="paint0_linear_569_1706" x1="24.7676" y1="14.6453" x2="37.8166" y2="16.6233" gradientUnits="userSpaceOnUse">
<stop stop-color="#ED5858"/>
<stop offset="0.927083" stop-color="#6A1717"/>
</linearGradient>
<linearGradient id="paint1_linear_569_1706" x1="19.5537" y1="2.52788" x2="50.3604" y2="8.48662" gradientUnits="userSpaceOnUse">
<stop stop-color="#ED5858"/>
<stop offset="0.927083" stop-color="#6A1717"/>
</linearGradient>
<linearGradient id="paint2_linear_569_1706" x1="37.3274" y1="-3.12231" x2="59.7825" y2="2.03285" gradientUnits="userSpaceOnUse">
<stop stop-color="#ED5858"/>
<stop offset="0.927083" stop-color="#6A1717"/>
</linearGradient>
<linearGradient id="paint3_linear_569_1706" x1="6.45243" y1="-3.12231" x2="28.9075" y2="2.03285" gradientUnits="userSpaceOnUse">
<stop stop-color="#ED5858"/>
<stop offset="0.927083" stop-color="#6A1717"/>
</linearGradient>
<linearGradient id="paint4_linear_569_1706" x1="37.3274" y1="27.7527" x2="59.7825" y2="32.9078" gradientUnits="userSpaceOnUse">
<stop stop-color="#ED5858"/>
<stop offset="0.927083" stop-color="#6A1717"/>
</linearGradient>
<linearGradient id="paint5_linear_569_1706" x1="6.45243" y1="27.7527" x2="28.9075" y2="32.9078" gradientUnits="userSpaceOnUse">
<stop stop-color="#ED5858"/>
<stop offset="0.927083" stop-color="#6A1717"/>
</linearGradient>
</defs>
</svg>
