<svg viewBox="0 0 213 213" fill="none" xmlns="http://www.w3.org/2000/svg">
<path d="M192.383 34.2551C191.716 34.1658 191.022 34.6536 190.88 35.3105C190.738 35.9678 191.168 36.6978 191.812 36.892C192.456 37.0863 193.219 36.7161 193.464 36.0897C193.709 35.4634 193.474 34.401 192.383 34.2551Z" fill="#B9D8FF"/>
<path d="M31.7748 182.04C31.1078 181.973 30.4141 182.338 30.2721 182.831C30.13 183.324 30.56 183.872 31.2045 184.017C31.8481 184.163 32.6107 183.885 32.856 183.415C33.1008 182.945 32.8655 182.149 31.7748 182.04Z" fill="#B9D8FF"/>
<path d="M14.2286 44.3776C13.5617 44.2887 12.8681 44.7761 12.7262 45.4329C12.5841 46.0906 13.0143 46.8201 13.6584 47.0148C14.3021 47.2086 15.0649 46.8384 15.3101 46.2121C15.555 45.5853 15.3195 44.5235 14.2286 44.3776Z" fill="#B9D8FF"/>
<path d="M175.512 28.1819C174.845 28.0926 174.151 28.58 174.01 29.2372C173.868 29.8945 174.297 30.6245 174.942 30.8188C175.586 31.013 176.349 30.6428 176.594 30.0164C176.839 29.3897 176.603 28.3278 175.512 28.1819Z" fill="#B9D8FF"/>
<path d="M27.7387 23.1816C26.5743 21.9796 24.6654 21.7466 23.2869 22.6381C21.9082 23.5297 21.1782 25.4692 21.5837 27.1617C21.9897 28.8546 23.4964 30.155 25.098 30.1949C26.7 30.2347 28.2597 29.0105 28.7354 27.3398C29.108 26.0317 28.8503 24.3292 27.7387 23.1816Z" fill="#B9D8FF"/>
<path d="M199.492 48.1407C198.628 47.4522 197.318 47.6771 196.669 48.6325C196.021 49.588 196.142 51.1303 196.936 51.9244C197.73 52.7185 199.067 52.6263 199.767 51.7214C200.467 50.8155 200.578 49.008 199.492 48.1407Z" fill="#B9D8FF"/>
<path d="M19.3131 168.878C18.4497 168.287 17.1397 168.48 16.491 169.299C15.8423 170.118 15.9643 171.44 16.7576 172.121C17.5514 172.801 18.8886 172.722 19.5892 171.947C20.2892 171.171 20.4 169.622 19.3131 168.878Z" fill="#B9D8FF"/>
<path d="M170.339 192.554C169.331 191.864 167.803 192.09 167.046 193.045C166.289 194.001 166.431 195.543 167.357 196.337C168.283 197.131 169.844 197.038 170.661 196.134C171.477 195.228 171.607 193.421 170.339 192.554Z" fill="#B9D8FF"/>
<path d="M139.631 20.3539C109.04 11.3327 73.9015 10.3514 47.2447 27.799C27.9675 40.417 15.1786 61.7863 11.331 84.4265C7.48365 107.066 12.1901 130.744 22.6975 151.187C30.4476 166.265 41.6102 180.009 56.3802 188.422C70.9354 196.713 88.0994 199.374 104.869 199.566C121.424 199.755 138.275 197.601 153.326 190.737C175.077 180.817 191.881 161.08 198.978 138.342C206.076 115.604 203.592 90.2241 193.006 68.872C182.42 47.5195 164.869 27.7964 139.631 20.3539Z" fill="#FFF2F2"/>
<path d="M104.577 112.401C109.865 113.141 115.204 113.506 120.543 113.493C120.5 112.809 119.562 112.296 118.945 112.593C118.952 112.609 118.834 112.285 118.842 112.301C118.651 111.676 118.341 111.072 117.858 110.631C117.376 110.189 116.705 109.927 116.06 110.031C115.232 110.165 114.601 110.853 114.196 111.586C114.386 110.559 113.737 109.387 112.834 108.862C111.93 108.337 110.745 108.382 109.844 108.91C108.942 109.438 108.333 110.407 108.17 111.439C107.801 110.863 106.83 110.745 106.192 110.996C105.557 111.247 104.925 111.813 104.577 112.401Z" fill="#92CEE0"/>
<path d="M51.0373 112.668C51.0004 112.668 50.9635 112.655 50.9343 112.627C50.8735 112.57 50.8702 112.475 50.927 112.414L63.0221 99.4517L67.8883 103.254L95.0368 81.8806L98.54 84.4925L110.294 71.9339C110.351 71.8732 110.447 71.8702 110.507 71.9269C110.568 71.9836 110.571 72.0791 110.515 72.1401L98.5757 84.8956L95.0419 82.2605L67.8892 103.637L63.054 99.8593L51.1475 112.62C51.1176 112.652 51.0774 112.668 51.0373 112.668Z" fill="#FF6161"/>
<path d="M108.857 71.8424L110.745 73.4058L111.364 70.9576L108.857 71.8424Z" fill="#FF6161"/>
<path d="M63.8837 99.7874C63.8837 100.273 63.4894 100.668 63.0031 100.668C62.5168 100.668 62.1226 100.273 62.1226 99.7874C62.1226 99.301 62.5168 98.9068 63.0031 98.9068C63.4894 98.9068 63.8837 99.301 63.8837 99.7874Z" fill="#FF6161"/>
<path d="M68.7761 103.172C68.7761 103.658 68.3819 104.052 67.8955 104.052C67.4094 104.052 67.0149 103.658 67.0149 103.172C67.0149 102.686 67.4094 102.291 67.8955 102.291C68.3819 102.291 68.7761 102.686 68.7761 103.172Z" fill="#FF6161"/>
<path d="M52.4737 92.3198C52.416 92.3198 52.3612 92.2869 52.3361 92.231C52.3018 92.155 52.336 92.0659 52.4118 92.0318L69.5124 84.357L67.4906 74.0038L85.594 62.4848L88.6705 65.6622L103.777 58.4484C103.853 58.4123 103.942 58.4444 103.978 58.5193C104.014 58.5945 103.982 58.6847 103.907 58.7205L88.6048 66.0279L85.5484 62.8712L67.8256 74.148L69.8544 84.5341L52.5354 92.3067C52.5152 92.3159 52.4943 92.3198 52.4737 92.3198Z" fill="#FF6161"/>
<path d="M89.518 65.5574C89.518 66.0438 89.1238 66.438 88.6377 66.438C88.1513 66.438 87.7571 66.0438 87.7571 65.5574C87.7571 65.0713 88.1513 64.6771 88.6377 64.6771C89.1238 64.6771 89.518 65.0713 89.518 65.5574Z" fill="#FF6161"/>
<path d="M86.5976 62.8543C86.5976 63.3407 86.2034 63.7349 85.717 63.7349C85.2309 63.7349 84.8367 63.3407 84.8367 62.8543C84.8367 62.3679 85.2309 61.9737 85.717 61.9737C86.2034 61.9737 86.5976 62.3679 86.5976 62.8543Z" fill="#FF6161"/>
<path d="M68.6579 74.0764C68.6579 74.5626 68.2637 74.957 67.7773 74.957C67.2909 74.957 66.8967 74.5626 66.8967 74.0764C66.8967 73.59 67.2909 73.1958 67.7773 73.1958C68.2637 73.1958 68.6579 73.59 68.6579 74.0764Z" fill="#FF6161"/>
<path d="M70.4192 84.4456C70.4192 84.932 70.025 85.3262 69.5386 85.3262C69.0522 85.3262 68.658 84.932 68.658 84.4456C68.658 83.9592 69.0522 83.565 69.5386 83.565C70.025 83.565 70.4192 83.9592 70.4192 84.4456Z" fill="#FF6161"/>
<path d="M70.7341 119.861H76.2876L73.5796 116.274L70.7341 119.861Z" fill="#E1F2F9"/>
<path d="M74.7093 137.599H72.3123V118.839H74.7093V137.599Z" fill="#E1F2F9"/>
<path d="M131.423 110.992H136.976L134.268 107.405L131.423 110.992Z" fill="#E1F2F9"/>
<path d="M135.398 128.73H133.001V109.97H135.398V128.73Z" fill="#E1F2F9"/>
<path d="M68.7762 129.822H62.6108V107.605H68.7762V129.822Z" fill="#E1F2F9"/>
<path d="M60.6531 109.422H70.7341L65.8187 102.912L60.6531 109.422Z" fill="#E1F2F9"/>
<path d="M129.208 141.374H123.043V119.157H129.208V141.374Z" fill="#E1F2F9"/>
<path d="M121.085 120.974H131.166L126.251 114.463L121.085 120.974Z" fill="#E1F2F9"/>
<path d="M167.056 155.29H160.891V114.55H167.056V155.29Z" fill="#E1F2F9"/>
<path d="M158.933 116.367H169.014L164.099 109.856L158.933 116.367Z" fill="#E1F2F9"/>
<path d="M52.4734 167.065H46.3081V126.325H52.4734V167.065Z" fill="#E1F2F9"/>
<path d="M44.3503 128.142H54.4313L49.5159 121.631L44.3503 128.142Z" fill="#E1F2F9"/>
<path d="M52.2622 159.754C47.0856 161.415 41.5128 164.095 44.7136 167.598C45.8251 168.814 47.5625 169.187 49.1834 169.482C80.6053 175.212 112.955 175.822 144.57 171.281C152.01 170.213 159.451 168.85 166.518 166.291C169.457 165.227 172.847 163.118 172.481 160.014C172.129 157.04 168.61 155.711 165.663 155.178C150.548 152.446 135.04 154.148 119.683 154.481C107.042 154.755 94.3834 154.094 81.7572 154.763C74.1129 155.168 66.4649 156.074 59.0307 157.94C58.036 158.19 55.2135 158.806 52.2622 159.754Z" fill="#093266"/>
<path d="M55.3894 121.631L112.199 133.683L157.982 121.631L112.199 140.9L55.3894 121.631Z" fill="#093266"/>
<path d="M77.6296 126.827C77.3938 126.967 77.1681 127.226 77.2536 127.486C77.2916 127.602 77.3846 127.69 77.4793 127.767C78.1465 128.307 79.0201 128.501 79.8593 128.678C81.615 129.05 83.3706 129.422 85.1259 129.794C85.4444 129.862 85.7958 129.925 86.0808 129.767C86.5083 129.529 86.5557 128.942 86.5298 128.453C86.5049 127.987 86.4585 127.511 86.2568 127.09C85.9995 126.554 85.4871 126.148 84.9077 126.016C84.2771 125.873 83.6298 126.088 83.0917 126.414C82.6716 126.67 82.3229 126.851 81.8147 126.853C81.1333 126.856 80.462 126.687 79.7912 126.589C79.0673 126.483 78.2831 126.439 77.6296 126.827Z" fill="#1E3D44"/>
<path d="M93.0599 77.8211L88.5552 80.0631C86.4163 81.1275 84.9026 83.3055 84.5402 85.8398L81.5073 107.042C81.5073 107.042 89.2346 108.497 89.7965 102.911C90.3586 97.3241 93.0599 77.8211 93.0599 77.8211Z" fill="#1E3D44"/>
<path d="M107.868 138.951C104.909 126.144 102.089 113.305 99.4072 100.437C96.959 99.9942 94.2667 99.5961 91.7953 99.8858C91.5 99.9204 90.8965 99.7752 90.6077 99.845C93.6269 111.971 96.6461 124.098 99.6651 136.225C99.7397 136.525 99.8204 136.837 100.021 137.072C100.28 137.374 100.687 137.493 101.071 137.595C103.559 138.252 105.321 138.585 107.868 138.951Z" fill="#44457B"/>
<path d="M88.8106 100.149C85.0335 102.638 81.2565 105.127 77.4794 107.616C76.7147 108.12 75.9277 108.646 75.4298 109.415C74.1866 111.335 75.184 113.862 76.197 115.913C77.9389 119.44 79.6809 122.967 81.4225 126.494C83.3452 126.742 85.31 127.088 87.2327 127.336C86.4298 122.712 84.7046 118.135 83.0094 113.758C83.4033 114.044 84.014 114.067 84.2009 113.617C84.3878 113.168 84.0635 112.586 83.5829 112.508C87.3746 110.687 90.9476 108.169 94.2155 105.52C94.4066 105.365 94.6058 105.196 94.6787 104.961C94.7642 104.686 94.6552 104.391 94.5479 104.124C94.1509 103.136 93.7545 102.148 93.3578 101.16C93.2217 100.822 93.0781 100.472 92.8108 100.223C92.5345 99.9667 92.1584 99.8496 91.7896 99.7703C90.9456 99.5884 89.5314 99.6739 88.8106 100.149Z" fill="#44457B"/>
<path d="M90.2458 70.4159C90.3548 69.3439 91.0597 68.3521 92.0364 67.8967C93.0131 67.4411 94.2258 67.5388 95.1171 68.1445C95.549 68.4382 95.9178 68.8665 96.0133 69.3799C96.0323 69.4825 96.0429 69.5934 96.11 69.6733C96.205 69.7867 96.3729 69.7945 96.5204 69.7999C96.8939 69.8135 97.2772 69.873 97.596 70.0678C97.9148 70.2625 98.1572 70.6159 98.1329 70.9889C98.0983 71.5205 97.5591 71.9349 97.5784 72.4673C97.587 72.7051 97.7091 72.9264 97.7278 73.1636C97.7756 73.762 97.197 74.1897 96.7992 74.6395C96.2209 75.2938 95.7948 76.2898 94.9232 76.3418C94.0828 76.3918 93.5207 75.4913 93.2796 74.6848C93.0385 73.8785 92.8524 72.9415 92.1297 72.5098C91.916 72.3821 91.6748 72.3148 91.4511 72.2084C91.244 72.1097 91.0946 71.9575 90.9155 71.8195C90.6674 71.6278 90.4749 71.4895 90.3514 71.1878C90.2514 70.9431 90.219 70.6788 90.2458 70.4159Z" fill="#1E3D44"/>
<path d="M90.2452 73.1905C90.0131 74.926 90.666 77.2224 92.6127 77.0258C93.9073 76.8947 95.1335 75.6107 95.3657 73.8752C95.5975 72.1397 95.1036 70.3637 93.274 70.0276C90.9546 69.6016 90.4771 71.455 90.2452 73.1905Z" fill="#FCBA9D"/>
<path d="M94.882 73.7236C94.6353 74.2158 94.5194 75.0758 94.9222 75.2775C95.3251 75.4792 96.0939 74.9464 96.3404 74.4541C96.587 73.9619 96.4605 73.3992 96.0576 73.1975C95.655 72.9958 95.1287 73.2313 94.882 73.7236Z" fill="#FCBA9D"/>
<path d="M94.9948 77.9948C95.1255 78.2904 95.3169 78.5815 95.2979 78.9042C95.2859 79.1123 95.1861 79.3042 95.0803 79.4836C94.8227 79.92 94.5081 80.3351 94.0882 80.6184C93.668 80.902 93.1294 81.04 92.6435 80.8959C92.1577 80.7517 91.7587 80.2868 91.778 79.7806C91.8065 79.0332 92.6231 78.5661 92.8782 77.8632C93.0254 77.4576 92.9724 77.0072 93.0606 76.5848C93.1905 75.964 93.7172 75.2834 94.3648 75.1412C94.7031 75.0669 94.9244 74.9689 94.926 75.2362C94.9283 75.6042 94.7341 76.4269 94.7447 76.7974C94.7565 77.2075 94.8283 77.6179 94.9948 77.9948Z" fill="#FCBA9D"/>
<path d="M94.9946 77.9948L93.1512 79.6493L92.8758 77.8881C92.8758 77.8881 91.3431 79.4967 90.8276 80.4301C90.3122 81.3641 89.1039 84.0768 88.0769 91.2795C87.0502 98.4824 87.5036 99.9382 88.513 100.573C89.5227 101.208 94.8607 101.143 94.8607 101.143L95.6754 81.0188L94.9946 77.9948Z" fill="#E1F2F9"/>
<path d="M92.0053 80.2948C92.0285 80.6005 92.2609 80.8787 92.5574 80.9564C91.1356 83.8133 90.1572 86.9415 89.863 90.1194C90.2327 90.7033 90.612 91.2666 91.1183 91.7373C91.7483 91.2492 92.5194 90.7234 93.1748 90.27C92.6934 88.1068 92.732 85.7617 92.78 83.5462C92.7982 82.717 92.8161 81.8881 92.8339 81.0592C93.1806 81.0687 93.5128 80.8704 93.7299 80.5996C93.6162 80.4194 93.5067 80.2401 93.3933 80.0599C93.3586 80.0046 93.3203 79.9465 93.2603 79.9207C93.2052 79.897 93.1424 79.9054 93.0831 79.9157C92.7468 79.9733 92.3196 80.1621 92.0053 80.2948Z" fill="#FF6161"/>
<path d="M90.9861 80.7859C91.4029 80.6786 91.8133 80.5484 92.2142 80.3917C92.3978 80.3199 92.5794 80.2434 92.7587 80.1621C92.8406 80.1249 92.9727 80.0221 93.0588 80.0202C93.1378 80.0182 93.0593 79.995 93.1205 80.0461C93.1552 80.0749 93.189 80.1461 93.2144 80.1816C93.6525 80.7949 94.1944 81.3204 94.8149 81.7473C94.9697 81.8537 95.1153 81.6017 94.9619 81.4961C94.6183 81.2597 94.2998 80.991 94.0109 80.6901C93.874 80.5471 93.7435 80.3981 93.6212 80.2425C93.5066 80.0973 93.4097 79.8821 93.2644 79.7668C93.1359 79.6642 93.0096 79.7232 92.8789 79.7852C92.6679 79.8855 92.4564 79.983 92.2399 80.0704C91.8063 80.2453 91.3613 80.3889 90.9087 80.5054C90.7277 80.5521 90.8045 80.8326 90.9861 80.7859Z" fill="#85A1AA"/>
<path d="M94.9946 77.9945L99.4463 81.04C101.56 82.4858 102.79 84.91 102.708 87.4694L102.029 108.883C102.029 108.883 93.4042 108.871 93.8394 103.273C94.2747 97.6753 94.9946 77.9945 94.9946 77.9945Z" fill="#1E3D44"/>
<path d="M98.837 106.841C100.77 114.583 102.702 122.325 104.635 130.066C105.164 132.186 105.693 134.304 106.222 136.423C106.265 136.595 106.531 136.523 106.488 136.35C104.555 128.608 102.622 120.866 100.69 113.124C100.161 111.005 99.6318 108.886 99.1029 106.768C99.0599 106.596 98.7939 106.668 98.837 106.841Z" fill="#1E3D44"/>
<path d="M92.3083 106.649C92.053 105.133 91.6666 103.328 90.2021 102.52C90.0468 102.434 89.9076 102.672 90.063 102.758C91.4579 103.528 91.8001 105.283 92.0426 106.722C92.072 106.897 92.3377 106.823 92.3083 106.649Z" fill="#1E3D44"/>
<path d="M90.8315 103.981C90.5253 103.673 90.0993 103.497 89.6651 103.5C89.4877 103.501 89.4875 103.777 89.6651 103.775C90.0255 103.773 90.3789 103.916 90.6365 104.176C90.762 104.302 90.9567 104.107 90.8315 103.981Z" fill="#1E3D44"/>
<path d="M83.3692 111.996C82.8658 111.689 82.362 111.382 81.8586 111.074C81.7069 110.981 81.568 111.22 81.7195 111.312C82.2232 111.62 82.7266 111.927 83.2301 112.234C83.382 112.326 83.5206 112.088 83.3692 111.996Z" fill="#1E3D44"/>
<path d="M82.4803 113.452C82.0785 113.564 81.6771 113.676 81.2756 113.789C81.1049 113.836 81.1773 114.102 81.3488 114.054C81.7503 113.942 82.1517 113.83 82.5535 113.718C82.7239 113.67 82.6515 113.404 82.4803 113.452Z" fill="#1E3D44"/>
<path d="M97.6627 124.184C98.3433 124.529 98.9789 124.956 99.5527 125.46C99.6857 125.576 99.8813 125.382 99.7477 125.265C99.1563 124.746 98.5034 124.302 97.8019 123.946C97.644 123.866 97.5043 124.104 97.6627 124.184Z" fill="#1E3D44"/>
<path d="M98.5203 123.453C98.9249 123.858 99.3294 124.262 99.734 124.667C99.8597 124.792 100.055 124.598 99.929 124.472C99.5244 124.067 99.1199 123.663 98.7151 123.258C98.5896 123.133 98.3946 123.327 98.5203 123.453Z" fill="#1E3D44"/>
<path d="M94.8686 92.2062C96.1588 88.2494 97.2224 84.2221 98.0535 80.1441C98.0887 79.9708 97.8233 79.8968 97.7878 80.0709C96.9564 84.1487 95.8931 88.1762 94.6029 92.133C94.5479 92.302 94.8138 92.3744 94.8686 92.2062Z" fill="#375A60"/>
<path d="M87.8415 91.2628C87.7965 87.6678 87.9052 84.0725 88.1673 80.4864C88.1801 80.3096 87.9046 80.3104 87.8915 80.4864C87.6297 84.0725 87.521 87.6678 87.566 91.2628C87.5683 91.4402 87.8437 91.4405 87.8415 91.2628Z" fill="#375A60"/>
<path d="M91.1067 93.2925C91.6682 93.2925 91.6691 92.42 91.1067 92.42C90.5454 92.42 90.5443 93.2925 91.1067 93.2925Z" fill="#1E3D44"/>
<path d="M90.8792 95.8721C91.4405 95.8721 91.4413 94.9996 90.8792 94.9996C90.3177 94.9996 90.3169 95.8721 90.8792 95.8721Z" fill="#1E3D44"/>
<path d="M90.8031 98.6792C91.3643 98.6792 91.3655 97.8067 90.8031 97.8067C90.2415 97.8067 90.2407 98.6792 90.8031 98.6792Z" fill="#1E3D44"/>
<path d="M90.5302 73.0806H86.7366V72.2461H90.5302C90.7607 72.2461 90.9476 72.433 90.9476 72.6635C90.9476 72.8939 90.7607 73.0806 90.5302 73.0806Z" fill="url(#paint0_linear_248_2000)"/>
<path d="M88.3815 73.4785H81.2007V71.8472H88.3815V73.4785Z" fill="url(#paint1_linear_248_2000)"/>
<path d="M82.5918 74.0762H74.4407V71.25H82.5918V74.0762Z" fill="url(#paint2_linear_248_2000)"/>
<path d="M88.6378 73.0806H88.3816V72.2461H88.6378V73.0806Z" fill="#093266"/>
<path d="M83.1371 73.4785H82.5918V71.8472H83.1371V73.4785Z" fill="#093266"/>
<path d="M85.3625 75.3251C85.8733 74.8825 86.3434 74.3928 86.7647 73.8645C86.9603 73.6195 87.1508 73.3538 87.2025 73.0445C87.2542 72.7355 87.1237 72.3743 86.8332 72.2578C86.7089 72.2078 86.5586 72.21 86.4493 72.2868C86.3398 72.3639 86.2881 72.5237 86.3535 72.6405C86.4122 72.7458 86.5457 72.7972 86.5915 72.909C86.6491 73.0498 86.5343 73.2054 86.4024 73.2811C86.1454 73.4292 85.8285 73.4063 85.5324 73.3901C84.9672 73.3585 84.3998 73.3663 83.8357 73.4127C83.7804 73.4172 83.7229 73.423 83.6773 73.4538C83.6279 73.4873 83.6008 73.544 83.5756 73.5982C83.3678 74.0494 83.1602 74.5009 82.9526 74.9524C83.474 75.0976 83.7212 75.363 84.2425 75.508C84.4526 75.5667 84.6677 75.6257 84.8854 75.6117C85.1033 75.598 85.1977 75.4681 85.3625 75.3251Z" fill="#FCBA9D"/>
<path d="M85.9473 71.7075C85.8892 71.603 85.802 71.5058 85.686 71.4756C85.5704 71.4452 85.4268 71.5055 85.3988 71.622C85.3335 71.5013 85.1918 71.4267 85.0552 71.4412C84.9189 71.4558 84.7959 71.5586 84.7574 71.6905C84.7392 71.5519 84.6018 71.4404 84.4626 71.451C84.3235 71.4619 84.2045 71.5932 84.2079 71.7329C84.124 71.5988 83.9064 71.6192 83.7963 71.7329C83.6865 71.8466 83.6561 72.0131 83.6318 72.1693C83.6061 72.3339 83.6114 72.5512 83.7684 72.6068C83.9123 72.6577 84.0486 72.5213 84.1411 72.4001C84.1405 72.5487 84.2911 72.6711 84.4397 72.6644C84.5881 72.6577 84.7183 72.5431 84.7708 72.404C84.7498 72.5529 84.8985 72.6892 85.0485 72.6864C85.1988 72.6836 85.3307 72.5708 85.3927 72.4342C85.3807 72.5948 85.5254 72.7501 85.6869 72.749C85.8942 72.7476 85.9732 72.5426 86.0193 72.3746C86.0802 72.152 86.0601 71.9112 85.9473 71.7075Z" fill="#FCBA9D"/>
<path d="M86.0486 88.2212C82.8115 90.1179 77.7938 88.6073 77.3591 88.5098C76.0363 88.2136 75.204 86.788 75.1794 85.4327C75.1548 84.0772 75.7605 82.7934 76.4375 81.6189C78.0707 78.7846 80.4192 76.3317 82.9263 74.2305C83.8125 74.7409 84.7624 75.1402 85.7472 75.4159C83.8888 78.0703 82.0373 80.8682 80.2571 83.5757C80.3862 83.4315 80.5027 83.1887 80.6882 83.1329C80.8737 83.077 81.1154 83.1608 81.1581 83.3499C81.2213 83.6285 80.8352 83.8648 80.9036 84.1425C82.0337 83.6103 83.1356 83.2002 84.2659 82.6683C84.8384 82.3989 85.4136 82.1279 85.9346 81.7692C86.3699 81.47 86.8281 81.092 87.353 81.1512C87.2737 83.1955 86.5062 86.227 86.0486 88.2212Z" fill="#1E3D44"/>
<path d="M84.3892 88.747C84.8276 87.3255 85.2656 85.904 85.704 84.4825C85.7565 84.3127 85.4902 84.24 85.4383 84.4093C84.9999 85.8308 84.5616 87.2523 84.1235 88.6738C84.071 88.8436 84.337 88.9163 84.3892 88.747Z" fill="#375A60"/>
<path d="M104.486 102.358C103.963 102.671 103.644 103.258 103.111 103.555C102.444 103.928 101.509 103.708 101.078 103.077C100.935 102.868 100.899 102.501 101.143 102.434C100.873 102.414 100.591 102.243 100.541 101.977C100.491 101.71 100.794 101.42 101.033 101.549C100.776 101.515 100.533 101.389 100.357 101.199C100.274 101.109 100.203 100.994 100.217 100.872C100.251 100.579 100.668 100.559 100.956 100.623C100.743 100.614 100.521 100.602 100.334 100.497C100.148 100.392 100.013 100.164 100.085 99.9632C100.167 99.7383 100.457 99.662 100.692 99.7072C100.926 99.7528 101.137 99.8821 101.369 99.94C101.601 99.9975 101.891 99.9562 102.006 99.7469C102.044 99.6782 102.059 99.5986 102.065 99.5201C102.101 99.0471 101.817 98.5657 101.386 98.3682C101.262 98.3115 101.126 98.2754 101.014 98.1958C100.903 98.1162 100.82 97.9731 100.864 97.8435C100.9 97.7396 101.005 97.6767 101.107 97.6365C101.717 97.3965 102.49 97.736 102.726 98.3467C102.84 98.6425 102.838 98.9694 102.913 99.2776C102.988 99.5854 103.182 99.9045 103.493 99.9654C103.835 99.7975 104.075 99.6036 104.329 99.3192C104.668 100.226 104.596 101.396 104.486 102.358Z" fill="#FCBA9D"/>
<path d="M100.442 81.9699C103.212 84.6123 105.902 87.3401 108.505 90.1484C109.537 91.262 110.616 92.5351 110.631 94.0533C110.642 95.1423 110.095 96.1511 109.53 97.0823C108.233 99.2245 106.764 101.263 105.142 103.172C104.843 102.481 104.398 101.719 104.099 101.027C103.853 100.46 103.602 99.8543 103.693 99.2421C103.918 97.7218 105.225 96.3769 106.095 95.1099C105.943 95.2641 105.637 94.9146 105.626 94.6983C105.615 94.4821 105.792 94.2986 105.985 94.2013C106.179 94.1044 106.397 94.065 106.59 93.9683C105.417 93.3093 104.318 92.4385 103.144 91.7791C102.615 91.4819 102.078 91.179 101.645 90.7521C100.906 90.0216 100.542 88.9996 100.26 87.9992C99.7186 86.0723 99.6761 83.8188 100.442 81.9699Z" fill="#1E3D44"/>
<path d="M100.747 84.5329C100.522 86.7157 100.909 88.9197 101.852 90.8999C101.928 91.06 102.166 90.9203 102.09 90.7608C101.167 88.8239 100.802 86.6662 101.023 84.5329C101.041 84.3569 100.765 84.358 100.747 84.5329Z" fill="#375A60"/>
<path d="M118.354 140.08H116.211V55.7441H118.354V140.08Z" fill="#1E3D44"/>
<path d="M162.347 97.2342C156.211 98.288 151.896 103.969 146.029 106.057C142.587 107.283 138.686 107.169 135.32 105.746C132.763 104.665 130.57 102.892 128.205 101.436C125.84 99.9808 123.119 98.8068 120.363 99.1418C118.296 99.3932 116.41 100.333 114.686 101.501C113.942 88.2204 114.367 75.0893 115.421 61.8301C118.493 59.2791 122.705 57.9693 126.596 58.867C131.541 60.0074 135.293 64.3822 140.271 65.3661C147.919 66.8784 155.011 59.9546 162.802 60.2767C165.22 65.9182 164.75 72.2469 164.291 78.3678C163.829 84.5351 162.996 91.0837 162.347 97.2342Z" fill="#FF6161"/>
<path d="M153.787 82.9956C153.787 90.8936 147.385 97.2964 139.487 97.2964C131.588 97.2964 125.186 90.8936 125.186 82.9956C125.186 75.0976 131.588 68.6948 139.487 68.6948C147.385 68.6948 153.787 75.0976 153.787 82.9956Z" fill="#FF7474"/>
<path d="M150.889 82.9958C150.889 89.2936 145.784 94.3989 139.487 94.3989C133.189 94.3989 128.083 89.2936 128.083 82.9958C128.083 76.6981 133.189 71.5928 139.487 71.5928C145.784 71.5928 150.889 76.6981 150.889 82.9958Z" fill="url(#paint3_linear_248_2000)"/>
<path d="M138.368 89.443C137.535 89.3885 136.754 89.2779 136.024 89.1103C135.294 88.9429 134.734 88.7725 134.345 88.5996V85.3881H137.913C137.913 85.7343 137.984 85.9801 138.124 86.126C138.265 86.2721 138.53 86.345 138.919 86.345C139.265 86.345 139.516 86.2911 139.673 86.183C139.83 86.0748 139.908 85.9125 139.908 85.6963C139.908 85.5451 139.841 85.4071 139.706 85.2828C139.571 85.1585 139.324 85.0314 138.968 84.9015C137.767 84.4581 136.84 84.0499 136.186 83.6769C135.532 83.304 135.037 82.8556 134.702 82.3306C134.367 81.8065 134.199 81.1332 134.199 80.3116C134.199 79.198 134.524 78.3165 135.173 77.6678C135.821 77.0191 136.886 76.619 138.368 76.4676V74.6025H140.492V76.4352C141.368 76.4894 142.163 76.6165 142.876 76.8163C143.59 77.0166 144.12 77.2244 144.466 77.441V80.344H141.06C141.06 79.8034 140.762 79.5329 140.168 79.5329C139.811 79.5329 139.554 79.5793 139.398 79.6709C139.241 79.7629 139.162 79.9224 139.162 80.1495C139.162 80.3225 139.233 80.4521 139.373 80.5387C139.514 80.6253 139.779 80.7278 140.168 80.8468C141.184 81.1712 142.009 81.4984 142.641 81.828C143.274 82.158 143.787 82.6011 144.182 83.1581C144.577 83.7149 144.774 84.4313 144.774 85.3071C144.774 86.5397 144.409 87.5022 143.679 88.1939C142.949 88.8859 141.887 89.2969 140.492 89.4265V91.3892H138.368V89.443Z" fill="#FF7474"/>
<path d="M119.456 97.9529C119.388 88.7178 119.319 79.4827 119.251 70.2476C119.232 67.6471 119.212 65.0461 119.193 62.4457C119.192 62.2682 118.916 62.268 118.918 62.4457C118.986 71.6808 119.054 80.9159 119.123 90.1507C119.142 92.7514 119.161 95.3522 119.18 97.9529C119.182 98.13 119.457 98.1306 119.456 97.9529Z" fill="#FF7474"/>
<path d="M127.133 62.8161C130.238 63.2067 132.412 66.058 135.572 66.2838C135.749 66.2963 135.748 66.0209 135.572 66.0083C132.429 65.7834 130.243 62.9318 127.133 62.5407C126.957 62.5183 126.959 62.7943 127.133 62.8161Z" fill="#FF7474"/>
<path d="M132.578 66.7555C133.087 66.9133 133.596 67.0709 134.105 67.229C134.276 67.2815 134.348 67.0156 134.179 66.963C133.67 66.8055 133.16 66.6476 132.651 66.4898C132.482 66.4373 132.409 66.7032 132.578 66.7555Z" fill="#FF7474"/>
<path d="M142.419 103.42C147.831 103.292 151.445 98.6495 155.459 95.6884C156.674 94.7919 157.977 94.0143 159.404 93.5087C159.57 93.45 159.499 93.1835 159.331 93.243C154.394 94.9913 151.353 99.6586 146.755 101.983C145.402 102.667 143.94 103.108 142.419 103.144C142.242 103.148 142.241 103.424 142.419 103.42Z" fill="#FF7474"/>
<path d="M148.546 99.0092C150.299 97.4237 152.115 95.9081 153.99 94.4682C154.129 94.3618 153.991 94.1223 153.851 94.2305C151.957 95.6843 150.122 97.2131 148.351 98.8145C148.219 98.9338 148.415 99.1282 148.546 99.0092Z" fill="#FF7474"/>
<path d="M154.549 68.1353C155.515 67.4117 156.481 66.6881 157.447 65.9645C157.588 65.8595 157.451 65.6201 157.308 65.7265C156.342 66.4501 155.376 67.174 154.41 67.8976C154.269 68.0026 154.406 68.242 154.549 68.1353Z" fill="#FF7474"/>
<path d="M157.074 68.3327C157.377 68.1301 157.681 67.9279 157.984 67.7256C158.046 67.6842 158.073 67.6041 158.034 67.537C157.998 67.4756 157.907 67.4462 157.845 67.4876C157.542 67.6898 157.238 67.8924 156.935 68.0949C156.873 68.136 156.847 68.2162 156.885 68.2832C156.921 68.3447 157.012 68.3743 157.074 68.3327Z" fill="#FF7474"/>
<path d="M55.3894 121.631L112.199 137.534V160.168H71.5425L55.3894 121.631Z" fill="url(#paint4_linear_248_2000)"/>
<path d="M157.982 121.631L112.199 137.534V160.168H141.829L157.982 121.631Z" fill="url(#paint5_linear_248_2000)"/>
<path d="M112.587 160.168H111.811V136.718H112.587V160.168Z" fill="#093266"/>
<path d="M71.2833 146.418C74.1056 149.173 76.7329 152.121 79.1456 155.241C79.2598 155.389 79.4643 155.182 79.3512 155.035C76.9385 151.915 74.3112 148.967 71.489 146.212C71.3551 146.082 71.1492 146.287 71.2833 146.418Z" fill="#093266"/>
<path d="M74.316 151.579C75.6311 152.894 76.9461 154.21 78.2614 155.525C78.3938 155.657 78.5995 155.452 78.4668 155.319C77.1517 154.004 75.8367 152.689 74.5217 151.374C74.3892 151.241 74.1833 151.447 74.316 151.579Z" fill="#093266"/>
<path d="M139.361 132.647C141.163 135.189 142.965 137.731 144.767 140.273C144.875 140.425 145.127 140.28 145.019 140.126C143.216 137.584 141.414 135.042 139.612 132.5C139.505 132.348 139.253 132.493 139.361 132.647Z" fill="#093266"/>
<path d="M138.611 137.047C139.429 138.051 140.247 139.056 141.065 140.061C141.183 140.206 141.388 139.999 141.271 139.855C140.453 138.85 139.635 137.846 138.817 136.841C138.699 136.696 138.494 136.903 138.611 137.047Z" fill="#093266"/>
<path d="M52.6804 167.224C53.1476 166.372 53.9065 165.534 54.9264 165.416C55.8691 165.306 56.9904 166.138 56.7466 167.162C56.6898 167.4 56.9689 167.554 57.147 167.395C57.9722 166.656 59.04 165.988 60.1939 166.065C61.1687 166.131 62.1845 166.83 62.2825 167.859C62.3 168.042 62.5463 168.204 62.6916 168.028C63.3356 167.246 64.1163 166.269 65.22 166.233C65.6226 166.221 66.0601 166.327 66.3591 166.611C66.7049 166.94 66.6845 167.489 67.0938 167.769C67.742 168.213 68.5309 167.566 69.055 167.219C69.4406 166.964 69.818 166.728 70.2997 166.757C70.795 166.788 71.2373 167.047 71.4979 167.467C71.7287 167.84 71.8519 168.269 72.2165 168.542C72.459 168.723 72.7493 168.806 73.0513 168.783C73.6804 168.735 74.2411 168.328 74.7661 168.016C75.2673 167.719 75.9892 167.26 76.5594 167.653C77.1416 168.053 77.2464 168.887 77.8423 169.283C78.7567 169.89 79.3892 168.792 80.1877 168.555C81.1239 168.276 82.2584 168.775 82.6118 169.7C82.7205 169.985 83.184 169.862 83.0737 169.573C82.7831 168.812 82.1308 168.268 81.3401 168.076C80.464 167.864 79.765 168.145 79.076 168.67C78.6422 169.001 78.2315 169.108 77.8703 168.647C77.63 168.34 77.4738 167.976 77.2375 167.666C76.8075 167.101 76.1892 166.9 75.5126 167.118C74.8337 167.338 74.273 167.803 73.6368 168.111C73.3614 168.245 73.0225 168.376 72.7155 168.274C72.2279 168.112 72.1073 167.508 71.8483 167.125C71.3744 166.424 70.4187 166.101 69.6144 166.369C69.2012 166.507 68.8461 166.788 68.4862 167.024C68.1753 167.227 67.5841 167.677 67.2676 167.272C67.0838 167.036 67.0494 166.711 66.8667 166.466C66.7443 166.302 66.5901 166.164 66.4163 166.056C66.0204 165.808 65.5242 165.721 65.0635 165.765C63.8846 165.877 63.0577 166.834 62.3528 167.689C62.4891 167.746 62.6254 167.802 62.7616 167.859C62.6478 166.664 61.6277 165.796 60.4757 165.617C59.0979 165.403 57.7952 166.173 56.8081 167.056C56.9416 167.134 57.0751 167.211 57.2084 167.289C57.4926 166.097 56.4365 165.035 55.2892 164.931C53.9585 164.812 52.8561 165.907 52.2667 166.982C52.1184 167.253 52.5319 167.495 52.6804 167.224Z" fill="white"/>
<path d="M97.2833 167.798C97.3727 167.153 97.8583 166.582 98.5296 166.505C99.1884 166.43 99.8173 166.886 100.023 167.498C100.084 167.68 100.282 167.719 100.424 167.604C101.226 166.952 102.155 166.18 103.236 166.119C104.084 166.071 105.029 166.503 105.225 167.39C105.269 167.586 105.571 167.629 105.663 167.447C106.065 166.652 106.907 166.117 107.812 166.183C108.684 166.246 109.447 166.88 109.728 167.696C109.773 167.827 109.947 167.936 110.079 167.839C110.932 167.211 111.892 166.48 112.996 166.441C113.875 166.409 114.834 166.907 114.998 167.828C115.031 168.019 115.275 168.042 115.398 167.934C116.101 167.316 116.917 166.581 117.898 166.509C118.667 166.453 119.609 166.932 119.641 167.783C119.65 168.037 119.948 168.088 120.087 167.904C120.595 167.234 121.31 166.549 122.195 166.483C122.93 166.428 123.776 166.928 123.811 167.719C123.825 168.025 124.304 168.027 124.29 167.719C124.247 166.73 123.345 166.053 122.401 166.003C121.257 165.942 120.314 166.816 119.673 167.663C119.822 167.703 119.971 167.743 120.12 167.783C120.082 166.774 119.158 166.114 118.209 166.035C116.972 165.932 115.924 166.835 115.059 167.595C115.193 167.63 115.326 167.666 115.46 167.701C115.278 166.676 114.289 166.064 113.31 165.972C112.002 165.85 110.833 166.692 109.838 167.425C109.955 167.473 110.072 167.52 110.19 167.568C109.851 166.581 108.973 165.827 107.923 165.714C106.823 165.595 105.742 166.229 105.25 167.205C105.395 167.224 105.541 167.244 105.687 167.263C105.46 166.241 104.435 165.668 103.443 165.638C102.143 165.599 101.038 166.492 100.085 167.265C100.218 167.301 100.352 167.336 100.485 167.371C100.21 166.553 99.4111 165.954 98.5296 166.026C97.6605 166.097 96.9394 166.818 96.8215 167.671C96.7796 167.973 97.2412 168.103 97.2833 167.798Z" fill="white"/>
<path d="M146.792 161.041C146.902 160.557 147.011 160.049 147.289 159.628C147.542 159.245 148.033 158.907 148.515 159.027C149.178 159.192 149.336 160.142 150.104 160.139C150.444 160.138 150.715 159.922 150.943 159.691C151.265 159.365 151.551 159.093 152.007 158.966C152.407 158.855 152.844 158.863 153.235 159.008C153.646 159.161 153.94 159.499 154.332 159.686C154.955 159.984 155.504 159.68 156.002 159.298C156.255 159.103 156.537 158.838 156.861 158.772C157.288 158.686 157.589 159.038 157.875 159.294C158.354 159.721 158.882 159.927 159.491 159.629C160.033 159.364 160.515 158.648 161.15 158.622C161.629 158.602 162.028 159.094 162.507 159.17C162.984 159.244 163.45 159.097 163.895 158.939C164.346 158.778 164.774 158.589 165.262 158.675C165.652 158.744 166.067 158.952 166.011 159.405C165.973 159.71 166.452 159.708 166.49 159.405C166.58 158.676 165.877 158.273 165.247 158.192C164.293 158.068 163.443 158.901 162.512 158.685C162.063 158.58 161.751 158.186 161.275 158.146C160.946 158.119 160.636 158.247 160.364 158.422C159.784 158.796 159.135 159.653 158.4 159.113C157.824 158.69 157.372 158.061 156.573 158.362C155.962 158.592 155.334 159.551 154.619 159.291C154.214 159.144 153.918 158.783 153.522 158.61C153.147 158.446 152.729 158.384 152.322 158.423C151.933 158.461 151.55 158.584 151.222 158.797C150.889 159.015 150.521 159.656 150.104 159.66C149.697 159.664 149.394 159.03 149.113 158.806C148.792 158.551 148.394 158.477 147.996 158.567C146.902 158.815 146.549 159.953 146.33 160.914C146.261 161.214 146.723 161.342 146.792 161.041Z" fill="white"/>
<path d="M140.163 166.698C140.54 165.821 142.08 165.874 142.342 166.819C142.389 166.989 142.617 167.058 142.742 166.925C143.534 166.083 144.95 165.939 145.872 166.66C146.112 166.848 146.453 166.511 146.211 166.321C145.088 165.443 143.39 165.537 142.403 166.586C142.537 166.621 142.67 166.657 142.804 166.692C142.441 165.38 140.297 165.182 139.749 166.456C139.629 166.737 140.041 166.981 140.163 166.698Z" fill="white"/>
<path d="M82.6413 162.178C82.8257 161.353 83.5446 160.738 84.3765 160.615C84.854 160.544 85.2298 160.689 85.66 160.875C86.0414 161.041 86.4152 161.094 86.7951 160.899C87.1639 160.709 87.419 160.367 87.7632 160.143C88.1057 159.921 88.5085 159.804 88.9156 159.789C89.7389 159.759 90.5664 160.114 91.033 160.807C91.1529 160.985 91.3984 160.946 91.4708 160.75C91.8116 159.826 92.7218 159.203 93.6851 159.089C94.1777 159.031 94.6789 159.11 95.1183 159.342C95.593 159.593 96.0098 159.958 96.5803 159.927C97.5858 159.871 98.1876 158.83 99.1964 158.705C100.187 158.583 101.21 159.058 101.703 159.931C101.773 160.054 101.982 160.101 102.079 159.98C102.744 159.148 103.851 158.709 104.901 158.973C105.912 159.227 106.681 160.069 106.908 161.074C106.976 161.375 107.438 161.248 107.37 160.947C107.107 159.785 106.193 158.804 105.029 158.511C103.826 158.209 102.51 158.678 101.74 159.641C101.866 159.657 101.991 159.673 102.117 159.689C101.602 158.779 100.606 158.234 99.5674 158.209C99.0537 158.197 98.5376 158.322 98.094 158.583C97.5866 158.882 97.0765 159.496 96.437 159.444C95.8313 159.395 95.3379 158.838 94.7426 158.684C94.2472 158.557 93.7201 158.568 93.2247 158.689C92.217 158.938 91.3696 159.645 91.0087 160.622C91.1548 160.603 91.3006 160.584 91.4468 160.565C90.9601 159.843 90.1795 159.411 89.3168 159.324C88.8659 159.278 88.3993 159.334 87.9763 159.5C87.5377 159.671 87.2309 159.963 86.8761 160.261C86.5931 160.498 86.333 160.611 85.9724 160.49C85.6983 160.397 85.46 160.24 85.1753 160.174C84.7571 160.078 84.3131 160.106 83.9055 160.236C83.0635 160.505 82.3745 161.178 82.1792 162.051C82.1122 162.351 82.574 162.48 82.6413 162.178Z" fill="white"/>
<path d="M119.088 160.644C119.287 159.735 119.622 158.37 120.806 158.409C121.364 158.428 121.422 158.91 121.812 159.174C122.119 159.382 122.47 159.284 122.735 159.06C123.049 158.794 123.233 158.416 123.594 158.201C123.911 158.012 124.282 157.939 124.648 157.953C125.392 157.979 126.147 158.391 126.41 159.113C126.466 159.266 126.686 159.37 126.811 159.219C127.298 158.629 128.014 158.294 128.781 158.287C129.153 158.284 129.529 158.357 129.864 158.521C130.215 158.694 130.509 158.982 130.889 159.097C131.664 159.33 132.061 158.558 132.767 158.469C133.469 158.38 134.208 158.817 134.417 159.497C134.478 159.695 134.746 159.733 134.855 159.555C135.445 158.59 137.168 158.821 137.485 159.905C137.571 160.2 138.034 160.075 137.947 159.778C137.513 158.292 135.248 157.993 134.441 159.313C134.588 159.332 134.733 159.351 134.879 159.37C134.665 158.674 134.069 158.171 133.359 158.026C133.019 157.956 132.658 157.967 132.331 158.084C131.899 158.239 131.505 158.787 131.017 158.635C130.58 158.499 130.235 158.137 129.8 157.978C129.426 157.841 129.014 157.788 128.618 157.813C127.789 157.867 127.003 158.237 126.472 158.88C126.605 158.916 126.739 158.951 126.873 158.986C126.294 157.401 123.957 156.92 122.841 158.223C122.711 158.375 122.467 158.788 122.245 158.807C121.967 158.83 121.806 158.377 121.614 158.216C121.261 157.922 120.768 157.875 120.336 157.987C119.195 158.282 118.848 159.502 118.627 160.516C118.561 160.816 119.023 160.945 119.088 160.644Z" fill="white"/>
<path d="M162.016 156.786H155.85V134.569H162.016V156.786Z" fill="#093266"/>
<path d="M153.893 136.387H163.974L159.058 129.876L153.893 136.387Z" fill="#093266"/>
<path d="M55.556 161.787H49.3909V139.57H55.556V161.787Z" fill="#093266"/>
<path d="M47.4331 141.387H57.5139L52.5985 134.876L47.4331 141.387Z" fill="#093266"/>
<path d="M164.685 139.973H170.238L167.53 136.386L164.685 139.973Z" fill="#093266"/>
<path d="M168.66 157.711H166.263V138.951H168.66V157.711Z" fill="#093266"/>
<path d="M57.8765 143.65H63.4298L60.7219 140.064L57.8765 143.65Z" fill="#093266"/>
<path d="M61.8518 161.389H59.4546V142.629H61.8518V161.389Z" fill="#093266"/>
<path d="M102.165 58.038L103.398 60.1562L104.823 58.0715L102.165 58.038Z" fill="#FF6161"/>
<path d="M155.942 112.812C157.037 115.893 155.427 119.278 152.347 120.373C149.266 121.469 145.88 119.859 144.785 116.778C143.69 113.697 145.3 110.312 148.381 109.216C151.461 108.121 154.847 109.731 155.942 112.812Z" fill="#FF6161"/>
<path d="M154.812 113.213C155.685 115.67 154.401 118.37 151.945 119.243C149.488 120.116 146.789 118.832 145.916 116.376C145.042 113.919 146.325 111.22 148.782 110.346C151.239 109.473 153.938 110.757 154.812 113.213Z" fill="white"/>
<path d="M150.821 117.465C150.489 117.559 150.169 117.624 149.861 117.66C149.553 117.696 149.311 117.707 149.135 117.694L148.69 116.441L150.082 115.946C150.13 116.081 150.191 116.167 150.266 116.205C150.341 116.242 150.455 116.234 150.607 116.18C150.741 116.132 150.832 116.076 150.878 116.012C150.924 115.948 150.933 115.874 150.903 115.79C150.882 115.731 150.836 115.687 150.766 115.656C150.696 115.627 150.583 115.611 150.425 115.61C149.896 115.604 149.477 115.573 149.17 115.518C148.863 115.464 148.608 115.357 148.405 115.199C148.201 115.041 148.043 114.801 147.929 114.481C147.774 114.047 147.779 113.658 147.942 113.315C148.105 112.972 148.465 112.668 149.022 112.404L148.763 111.676L149.592 111.381L149.846 112.096C150.195 111.996 150.523 111.935 150.829 111.914C151.135 111.893 151.37 111.901 151.536 111.937L151.938 113.07L150.609 113.542C150.535 113.331 150.381 113.267 150.149 113.35C150.01 113.399 149.916 113.453 149.868 113.51C149.819 113.568 149.811 113.641 149.842 113.729C149.866 113.797 149.912 113.838 149.979 113.852C150.045 113.866 150.163 113.87 150.331 113.862C150.773 113.848 151.14 113.861 151.432 113.902C151.725 113.943 151.986 114.045 152.218 114.207C152.449 114.37 152.625 114.622 152.747 114.963C152.917 115.444 152.909 115.87 152.72 116.241C152.531 116.612 152.174 116.92 151.648 117.164L151.92 117.929L151.091 118.224L150.821 117.465Z" fill="#FF6161"/>
<path d="M63.4906 82.6156C62.4526 85.7164 59.0977 87.3884 55.9969 86.3503C52.8964 85.3124 51.2242 81.9573 52.2622 78.8568C53.3003 75.756 56.6553 74.0839 59.7559 75.1218C62.8565 76.16 64.5286 79.515 63.4906 82.6156Z" fill="#FF6161"/>
<path d="M62.3531 82.235C61.5255 84.7072 58.8502 86.0406 56.3778 85.2131C53.9054 84.3853 52.5722 81.71 53.3997 79.2378C54.2275 76.7653 56.9027 75.4321 59.3751 76.2596C61.8475 77.0874 63.1807 79.7625 62.3531 82.235Z" fill="white"/>
<path d="M56.5899 83.1199C56.2702 82.9891 55.9779 82.843 55.7134 82.6813C55.4491 82.5195 55.2517 82.3793 55.1216 82.2602L55.5436 80.9994L56.9444 81.4682C56.899 81.6043 56.8942 81.7099 56.9302 81.7856C56.9661 81.8616 57.0606 81.925 57.2134 81.9761C57.3493 82.0217 57.4551 82.0337 57.5308 82.0116C57.6065 81.9898 57.6587 81.9364 57.6871 81.8515C57.707 81.792 57.6985 81.7291 57.662 81.6627C57.6252 81.5959 57.5452 81.5138 57.4223 81.416C57.0093 81.0841 56.6991 80.8019 56.4912 80.5695C56.2834 80.337 56.1482 80.0962 56.0855 79.8461C56.0228 79.5961 56.0456 79.31 56.1535 78.9871C56.2999 78.5501 56.5431 78.2467 56.8831 78.0774C57.223 77.9078 57.6936 77.8908 58.2951 78.026L58.5402 77.2938L59.3744 77.5731L59.1335 78.2925C59.4703 78.4289 59.7655 78.5834 60.0194 78.7555C60.2732 78.9278 60.4539 79.079 60.5614 79.2094L60.1799 80.3493L58.8428 79.9017C58.9137 79.6894 58.8324 79.5441 58.5991 79.4659C58.4591 79.4193 58.352 79.4036 58.2784 79.419C58.2048 79.4343 58.1531 79.4866 58.1232 79.5757C58.1006 79.6436 58.111 79.7039 58.155 79.7565C58.1986 79.8087 58.2892 79.8839 58.4264 79.9816C58.7826 80.2426 59.0635 80.4795 59.2684 80.6921C59.4733 80.9047 59.6168 81.1461 59.6986 81.4168C59.7802 81.6872 59.7636 81.9943 59.6485 82.3382C59.4865 82.8221 59.2168 83.152 58.8393 83.3275C58.4618 83.5035 57.9908 83.525 57.4261 83.3926L57.1684 84.1631L56.3341 83.884L56.5899 83.1199Z" fill="#FF6161"/>
<path d="M163.506 104.939C164.187 107.225 162.886 109.63 160.601 110.311C158.315 110.992 155.91 109.691 155.229 107.405C154.548 105.12 155.849 102.715 158.135 102.034C160.42 101.353 162.825 102.654 163.506 104.939Z" fill="#FF6161"/>
<path d="M162.667 105.189C163.21 107.011 162.173 108.929 160.351 109.472C158.528 110.015 156.61 108.978 156.068 107.155C155.525 105.333 156.562 103.415 158.384 102.872C160.207 102.329 162.124 103.366 162.667 105.189Z" fill="white"/>
<path d="M159.6 108.134C159.354 108.19 159.118 108.226 158.893 108.24C158.667 108.254 158.49 108.253 158.363 108.237L158.086 107.307L159.118 107C159.149 107.1 159.19 107.165 159.243 107.195C159.296 107.226 159.379 107.224 159.492 107.19C159.592 107.16 159.66 107.123 159.696 107.078C159.732 107.034 159.741 106.98 159.723 106.917C159.71 106.873 159.678 106.839 159.628 106.815C159.578 106.791 159.496 106.775 159.382 106.768C158.996 106.743 158.693 106.705 158.471 106.654C158.249 106.602 158.068 106.515 157.926 106.392C157.783 106.269 157.677 106.089 157.606 105.851C157.51 105.529 157.528 105.246 157.66 105.002C157.791 104.758 158.065 104.551 158.481 104.379L158.32 103.839L158.935 103.656L159.093 104.187C159.351 104.127 159.592 104.095 159.816 104.091C160.039 104.088 160.211 104.102 160.329 104.135L160.58 104.975L159.594 105.269C159.548 105.113 159.438 105.06 159.266 105.111C159.163 105.142 159.093 105.177 159.055 105.217C159.017 105.258 159.009 105.31 159.028 105.376C159.043 105.426 159.075 105.458 159.123 105.47C159.171 105.484 159.257 105.491 159.38 105.491C159.701 105.498 159.968 105.521 160.18 105.562C160.391 105.603 160.578 105.687 160.74 105.814C160.902 105.941 161.021 106.131 161.097 106.385C161.203 106.742 161.18 107.051 161.029 107.315C160.878 107.578 160.605 107.788 160.213 107.946L160.382 108.514L159.768 108.697L159.6 108.134Z" fill="#FF6161"/>
<path d="M53.1543 65.1431C60.5504 65.3823 67.9634 65.0979 75.3194 64.2924C75.1588 63.356 73.7909 62.7872 72.9833 63.2875C72.9967 63.3079 72.786 62.8796 72.7992 62.9C72.4435 62.0664 71.9269 61.2805 71.1969 60.7427C70.4669 60.2051 69.5036 59.9428 68.6292 60.182C67.5089 60.4881 66.74 61.5297 66.2902 62.6005C66.3997 61.157 65.3329 59.6372 64.0105 59.0468C62.6883 58.4568 61.0617 58.6943 59.897 59.5545C58.7322 60.4144 58.0363 61.8409 57.9643 63.287C57.3697 62.5469 56.0138 62.5282 55.1728 62.9682C54.3337 63.4071 53.5469 64.2815 53.1543 65.1431Z" fill="#FF6161"/>
<path d="M130.48 57.3491C136.445 58.1836 142.47 58.5957 148.493 58.5812C148.444 57.8095 147.387 57.2307 146.69 57.5653C146.699 57.5832 146.565 57.2181 146.574 57.236C146.359 56.5302 146.009 55.8491 145.464 55.351C144.92 54.8526 144.163 54.5567 143.435 54.6743C142.501 54.8255 141.789 55.6016 141.332 56.4294C141.546 55.2705 140.814 53.9477 139.795 53.3557C138.776 52.7634 137.439 52.8145 136.421 53.4099C135.404 54.0052 134.717 55.0993 134.534 56.2637C134.116 55.6131 133.021 55.4803 132.302 55.7634C131.585 56.0461 130.872 56.6859 130.48 57.3491Z" fill="#FF6161"/>
<defs>
<linearGradient id="paint0_linear_248_2000" x1="87.4633" y1="73.3324" x2="89.5686" y2="70.8933" gradientUnits="userSpaceOnUse">
<stop stop-color="#ED5858"/>
<stop offset="0.927083" stop-color="#6A1717"/>
</linearGradient>
<linearGradient id="paint1_linear_248_2000" x1="82.4399" y1="73.9707" x2="86.5998" y2="69.7667" gradientUnits="userSpaceOnUse">
<stop stop-color="#ED5858"/>
<stop offset="0.927083" stop-color="#6A1717"/>
</linearGradient>
<linearGradient id="paint2_linear_248_2000" x1="75.8473" y1="74.9289" x2="82.4827" y2="70.5354" gradientUnits="userSpaceOnUse">
<stop stop-color="#ED5858"/>
<stop offset="0.927083" stop-color="#6A1717"/>
</linearGradient>
<linearGradient id="paint3_linear_248_2000" x1="132.019" y1="101.28" x2="157.387" y2="95.4564" gradientUnits="userSpaceOnUse">
<stop stop-color="#ED5858"/>
<stop offset="0.927083" stop-color="#6A1717"/>
</linearGradient>
<linearGradient id="paint4_linear_248_2000" x1="65.1928" y1="171.796" x2="124.878" y2="151.597" gradientUnits="userSpaceOnUse">
<stop stop-color="#ED5858"/>
<stop offset="0.927083" stop-color="#6A1717"/>
</linearGradient>
<linearGradient id="paint5_linear_248_2000" x1="120.099" y1="171.796" x2="169.997" y2="158.187" gradientUnits="userSpaceOnUse">
<stop stop-color="#ED5858"/>
<stop offset="0.927083" stop-color="#6A1717"/>
</linearGradient>
</defs>
</svg>
