<svg  viewBox="0 0 16 17" fill="none" xmlns="http://www.w3.org/2000/svg">
<path d="M8.69991 11.3335H7.44659C6.55993 11.3335 5.83325 10.5868 5.83325 9.66682C5.83325 9.39349 6.05992 9.16682 6.33325 9.16682C6.60659 9.16682 6.83325 9.39349 6.83325 9.66682C6.83325 10.0335 7.10659 10.3335 7.44659 10.3335H8.69991C8.95991 10.3335 9.16659 10.1002 9.16659 9.81349C9.16659 9.45349 9.06659 9.40015 8.83993 9.32015L6.83325 8.62015C6.40659 8.47348 5.83325 8.16016 5.83325 7.18016C5.83325 6.34682 6.49326 5.66016 7.29993 5.66016H8.55324C9.43991 5.66016 10.1666 6.40682 10.1666 7.32682C10.1666 7.60016 9.93992 7.82682 9.66659 7.82682C9.39325 7.82682 9.16659 7.60016 9.16659 7.32682C9.16659 6.96016 8.89324 6.66016 8.55324 6.66016H7.29993C7.03993 6.66016 6.83325 6.89349 6.83325 7.18016C6.83325 7.54016 6.93325 7.59348 7.15991 7.67348L9.16659 8.37348C9.59325 8.52015 10.1666 8.83349 10.1666 9.81349C10.1666 10.6535 9.50658 11.3335 8.69991 11.3335Z" fill="white"/>
<path d="M8 12C7.72667 12 7.5 11.7733 7.5 11.5V5.5C7.5 5.22667 7.72667 5 8 5C8.27333 5 8.5 5.22667 8.5 5.5V11.5C8.5 11.7733 8.27333 12 8 12Z" fill="white"/>
<path d="M7.99992 15.6668C4.04659 15.6668 0.833252 12.4535 0.833252 8.50016C0.833252 4.54683 4.04659 1.3335 7.99992 1.3335C8.27325 1.3335 8.49992 1.56016 8.49992 1.8335C8.49992 2.10683 8.27325 2.3335 7.99992 2.3335C4.59992 2.3335 1.83325 5.10016 1.83325 8.50016C1.83325 11.9002 4.59992 14.6668 7.99992 14.6668C11.3999 14.6668 14.1666 11.9002 14.1666 8.50016C14.1666 8.22683 14.3933 8.00016 14.6666 8.00016C14.9399 8.00016 15.1666 8.22683 15.1666 8.50016C15.1666 12.4535 11.9533 15.6668 7.99992 15.6668Z" fill="white"/>
<path d="M13.9999 5.66667H11.3333C11.0599 5.66667 10.8333 5.44 10.8333 5.16667V2.5C10.8333 2.22667 11.0599 2 11.3333 2C11.6066 2 11.8333 2.22667 11.8333 2.5V4.66667H13.9999C14.2733 4.66667 14.4999 4.89333 14.4999 5.16667C14.4999 5.44 14.2733 5.66667 13.9999 5.66667Z" fill="white"/>
<path d="M11.3333 5.66663C11.2066 5.66663 11.08 5.61996 10.98 5.51996C10.7866 5.32663 10.7866 5.00663 10.98 4.81329L14.3133 1.47996C14.5066 1.28663 14.8266 1.28663 15.02 1.47996C15.2133 1.67329 15.2133 1.99329 15.02 2.18663L11.6866 5.51996C11.5866 5.61996 11.46 5.66663 11.3333 5.66663Z" fill="white"/>
</svg>
