<svg  viewBox="0 0 12 3" fill="none" xmlns="http://www.w3.org/2000/svg">
<path d="M0.000488281 2.9622C4.00466 3.07251 8.01801 2.94132 12.0005 2.56979C11.9135 2.13782 11.173 1.87544 10.7357 2.10625C10.743 2.11566 10.6289 1.9181 10.636 1.9275C10.4435 1.54296 10.1638 1.18045 9.76861 0.932374C9.37338 0.68443 8.85186 0.563424 8.37844 0.673736C7.77192 0.814977 7.35567 1.2954 7.11216 1.78935C7.17145 1.12349 6.59386 0.422443 5.87795 0.150142C5.1621 -0.122029 4.28146 -0.0124915 3.65092 0.384297C3.02034 0.780956 2.64357 1.43896 2.60457 2.10599C2.28268 1.76462 1.54857 1.75598 1.09329 1.95895C0.639001 2.1614 0.213059 2.56476 0.000488281 2.9622Z" fill="#FF6161"/>
</svg>
