<svg viewBox="0 0 40 51" fill="none" xmlns="http://www.w3.org/2000/svg">
<path fill-rule="evenodd" clip-rule="evenodd" d="M27.9999 10.401V32.3588C27.9999 33.5848 27.5182 34.7606 26.6609 35.6276C25.8036 36.4945 24.6409 36.9815 23.4284 36.9815H21.1427V34.6702H23.4284C24.0346 34.6702 24.616 34.4266 25.0447 33.9932C25.4733 33.5597 25.7141 32.9718 25.7141 32.3588V10.401H21.1427C20.2334 10.401 19.3613 10.0358 18.7184 9.38558C18.0754 8.73539 17.7141 7.85354 17.7141 6.93403V2.31134H5.14272C4.53651 2.31134 3.95513 2.55486 3.52647 2.98832C3.09782 3.42178 2.857 4.00968 2.857 4.62269V25.4248H0.571289V4.62269C0.571289 3.39668 1.05292 2.22088 1.91023 1.35395C2.76754 0.487032 3.9303 0 5.14272 0L17.7141 0L27.9999 10.401Z" fill="#F78F50"/>
<path d="M4.0127 29.8613C4.93392 29.8613 5.60612 30.0501 6.0293 30.4277C6.45247 30.8053 6.66406 31.3343 6.66406 32.0146C6.66406 32.3239 6.61523 32.6185 6.51758 32.8984C6.42318 33.1751 6.26693 33.4209 6.04883 33.6357C5.83073 33.8473 5.54264 34.015 5.18457 34.1387C4.82975 34.2624 4.39193 34.3242 3.87109 34.3242H3.10938V37H1.9375V29.8613H4.0127ZM3.93457 30.833H3.10938V33.3477H3.74902C4.11686 33.3477 4.42936 33.3053 4.68652 33.2207C4.94368 33.1328 5.139 32.9945 5.27246 32.8057C5.40592 32.6169 5.47266 32.3678 5.47266 32.0586C5.47266 31.6452 5.34733 31.3376 5.09668 31.1357C4.84928 30.9339 4.46191 30.833 3.93457 30.833ZM13.8857 33.3623C13.8857 34.1663 13.736 34.8385 13.4365 35.3789C13.137 35.916 12.7025 36.3213 12.1328 36.5947C11.5632 36.8649 10.8763 37 10.0723 37H8.08984V29.8613H10.2871C11.026 29.8613 11.6641 29.9948 12.2012 30.2617C12.7383 30.5254 13.1533 30.9176 13.4463 31.4385C13.7393 31.9561 13.8857 32.5973 13.8857 33.3623ZM12.665 33.3965C12.665 32.8105 12.5723 32.3288 12.3867 31.9512C12.2044 31.5736 11.9342 31.2936 11.5762 31.1113C11.2214 30.9258 10.7835 30.833 10.2627 30.833H9.26172V36.0186H10.0918C10.9544 36.0186 11.599 35.7988 12.0254 35.3594C12.4518 34.9199 12.665 34.2656 12.665 33.3965ZM16.5859 37H15.4238V29.8613H19.457V30.8477H16.5859V33.0742H19.2715V34.0557H16.5859V37Z" fill="#F78F50"/>
</svg>
