<svg  viewBox="0 0 22 22" fill="none" xmlns="http://www.w3.org/2000/svg">
<path d="M10.5418 19.9377C5.36266 19.9377 1.146 15.721 1.146 10.5418C1.146 5.36266 5.36266 1.146 10.5418 1.146C15.721 1.146 19.9377 5.36266 19.9377 10.5418C19.9377 15.721 15.721 19.9377 10.5418 19.9377ZM10.5418 2.521C6.11433 2.521 2.521 6.1235 2.521 10.5418C2.521 14.9602 6.11433 18.5627 10.5418 18.5627C14.9693 18.5627 18.5627 14.9602 18.5627 10.5418C18.5627 6.1235 14.9693 2.521 10.5418 2.521Z" fill="url(#paint0_linear_459_3730)"/>
<path d="M20.1665 20.854C19.9923 20.854 19.8182 20.7898 19.6807 20.6523L17.8473 18.819C17.5815 18.5532 17.5815 18.1132 17.8473 17.8473C18.1132 17.5815 18.5532 17.5815 18.819 17.8473L20.6523 19.6807C20.9182 19.9465 20.9182 20.3865 20.6523 20.6523C20.5148 20.7898 20.3407 20.854 20.1665 20.854Z" fill="url(#paint1_linear_459_3730)"/>
<defs>
<linearGradient id="paint0_linear_459_3730" x1="4.38881" y1="-4.5239" x2="25.2912" y2="0.274803" gradientUnits="userSpaceOnUse">
<stop stop-color="#ED5858"/>
<stop offset="0.927083" stop-color="#6A1717"/>
</linearGradient>
<linearGradient id="paint1_linear_459_3730" x1="18.2008" y1="16.6806" x2="21.7647" y2="17.4982" gradientUnits="userSpaceOnUse">
<stop stop-color="#ED5858"/>
<stop offset="0.927083" stop-color="#6A1717"/>
</linearGradient>
</defs>
</svg>
