<svg  viewBox="0 0 12 14" fill="none" xmlns="http://www.w3.org/2000/svg">
<path d="M0 7C0 7.18565 0.0790178 7.3637 0.21967 7.49497C0.360322 7.62625 0.551088 7.7 0.75 7.7H6.4425L4.7175 9.303C4.6472 9.36807 4.59141 9.44549 4.55333 9.5308C4.51525 9.6161 4.49565 9.70759 4.49565 9.8C4.49565 9.89241 4.51525 9.9839 4.55333 10.0692C4.59141 10.1545 4.6472 10.2319 4.7175 10.297C4.78722 10.3626 4.87017 10.4147 4.96157 10.4502C5.05296 10.4858 5.15099 10.5041 5.25 10.5041C5.34901 10.5041 5.44704 10.4858 5.53843 10.4502C5.62983 10.4147 5.71278 10.3626 5.7825 10.297L8.7825 7.497C8.85078 7.43043 8.9043 7.35193 8.94 7.266C9.01501 7.09558 9.01501 6.90442 8.94 6.734C8.9043 6.64807 8.85078 6.56957 8.7825 6.503L5.7825 3.703C5.71257 3.63773 5.62955 3.58596 5.53819 3.55064C5.44682 3.51532 5.34889 3.49714 5.25 3.49714C5.15111 3.49714 5.05318 3.51532 4.96181 3.55064C4.87045 3.58596 4.78743 3.63773 4.7175 3.703C4.64757 3.76827 4.5921 3.84575 4.55426 3.93103C4.51641 4.0163 4.49693 4.1077 4.49693 4.2C4.49693 4.2923 4.51641 4.3837 4.55426 4.46897C4.5921 4.55425 4.64757 4.63173 4.7175 4.697L6.4425 6.3H0.75C0.551088 6.3 0.360322 6.37375 0.21967 6.50503C0.0790178 6.6363 0 6.81435 0 7ZM9.75 0H2.25C1.65326 0 1.08097 0.221249 0.65901 0.615076C0.237053 1.0089 0 1.54305 0 2.1V4.2C0 4.38565 0.0790178 4.5637 0.21967 4.69497C0.360322 4.82625 0.551088 4.9 0.75 4.9C0.948912 4.9 1.13968 4.82625 1.28033 4.69497C1.42098 4.5637 1.5 4.38565 1.5 4.2V2.1C1.5 1.91435 1.57902 1.7363 1.71967 1.60503C1.86032 1.47375 2.05109 1.4 2.25 1.4H9.75C9.94891 1.4 10.1397 1.47375 10.2803 1.60503C10.421 1.7363 10.5 1.91435 10.5 2.1V11.9C10.5 12.0857 10.421 12.2637 10.2803 12.395C10.1397 12.5263 9.94891 12.6 9.75 12.6H2.25C2.05109 12.6 1.86032 12.5263 1.71967 12.395C1.57902 12.2637 1.5 12.0857 1.5 11.9V9.8C1.5 9.61435 1.42098 9.4363 1.28033 9.30503C1.13968 9.17375 0.948912 9.1 0.75 9.1C0.551088 9.1 0.360322 9.17375 0.21967 9.30503C0.0790178 9.4363 0 9.61435 0 9.8V11.9C0 12.457 0.237053 12.9911 0.65901 13.3849C1.08097 13.7788 1.65326 14 2.25 14H9.75C10.3467 14 10.919 13.7788 11.341 13.3849C11.7629 12.9911 12 12.457 12 11.9V2.1C12 1.54305 11.7629 1.0089 11.341 0.615076C10.919 0.221249 10.3467 0 9.75 0Z" fill="#E35050"/>
</svg>
