<svg  viewBox="0 0 26 26" fill="none" xmlns="http://www.w3.org/2000/svg">
<path opacity="0.2" d="M25.9295 13.0003C25.9295 20.1422 20.14 25.9319 12.9982 25.9319C5.85625 25.9319 0.0666504 20.1422 0.0666504 13.0003C0.0666504 5.85844 5.85625 0.0688477 12.9982 0.0688477C20.1399 0.0688477 25.9295 5.85844 25.9295 13.0003Z" fill="#00A478"/>
<path d="M11.6721 12.7736V10.5113H8.60376V8.52832H17.178V10.5393H14.1096V12.7736H11.6721Z" fill="#00A478"/>
<path fill-rule="evenodd" clip-rule="evenodd" d="M7.28467 13.0248C7.28467 12.2707 9.75084 11.6562 12.8192 11.6562C15.8876 11.6562 18.3538 12.2707 18.3538 13.0248C18.3538 13.7789 15.8876 14.3934 12.8192 14.3934C9.75084 14.3934 7.28467 13.7789 7.28467 13.0248ZM17.895 13.0248C17.6942 12.7455 16.031 11.8797 12.8192 11.8797C9.60746 11.8797 7.94423 12.7176 7.74349 13.0248C7.94423 13.3041 9.60746 13.723 12.8192 13.723C16.0597 13.723 17.6942 13.3041 17.895 13.0248Z" fill="#00A478"/>
<path d="M14.1095 13.472V11.9079C13.708 11.88 13.2779 11.8521 12.8477 11.8521C12.4463 11.8521 12.0735 11.8521 11.7007 11.88V13.444C12.0448 13.444 12.4463 13.472 12.8477 13.472C13.2779 13.4999 13.708 13.4999 14.1095 13.472Z" fill="#00A478"/>
<path d="M12.8192 14.3938C12.4177 14.3938 12.0449 14.3938 11.6721 14.3658V18.5273H14.0809V14.3379C13.6795 14.3658 13.2493 14.3938 12.8192 14.3938Z" fill="#00A478"/>
</svg>
