<svg viewBox="0 0 213 213" fill="none" xmlns="http://www.w3.org/2000/svg">
<path d="M194.218 32.5702C193.541 32.4796 192.836 32.975 192.692 33.642C192.548 34.3095 192.984 35.0509 193.638 35.2481C194.293 35.4454 195.067 35.0695 195.316 34.4334C195.565 33.7973 195.326 32.7184 194.218 32.5702Z" fill="#B9D8FF"/>
<path d="M31.1133 182.651C30.4359 182.583 29.7315 182.954 29.5872 183.455C29.4429 183.956 29.8796 184.512 30.5341 184.66C31.1877 184.808 31.9622 184.526 32.2112 184.049C32.4599 183.571 32.2209 182.762 31.1133 182.651Z" fill="#B9D8FF"/>
<path d="M13.2944 42.8499C12.6171 42.7597 11.9127 43.2547 11.7686 43.9217C11.6243 44.5895 12.0612 45.3304 12.7153 45.5281C13.369 45.725 14.1436 45.349 14.3927 44.713C14.6414 44.0765 14.4022 42.9981 13.2944 42.8499Z" fill="#B9D8FF"/>
<path d="M177.085 26.4023C176.408 26.3116 175.703 26.8066 175.559 27.4741C175.415 28.1415 175.851 28.8829 176.506 29.0802C177.159 29.2775 177.934 28.9015 178.183 28.2654C178.432 27.6289 178.193 26.5505 177.085 26.4023Z" fill="#B9D8FF"/>
<path d="M27.0143 21.3245C25.8319 20.1038 23.8933 19.8672 22.4933 20.7726C21.0932 21.678 20.3519 23.6477 20.7637 25.3664C21.176 27.0857 22.7061 28.4063 24.3326 28.4468C25.9595 28.4873 27.5434 27.244 28.0265 25.5474C28.4049 24.2189 28.1433 22.49 27.0143 21.3245Z" fill="#B9D8FF"/>
<path d="M201.437 46.6716C200.56 45.9725 199.229 46.2008 198.571 47.1711C197.912 48.1414 198.036 49.7077 198.841 50.5142C199.648 51.3206 201.006 51.2269 201.717 50.308C202.428 49.388 202.541 47.5524 201.437 46.6716Z" fill="#B9D8FF"/>
<path d="M18.4577 169.285C17.5808 168.685 16.2505 168.881 15.5917 169.713C14.9329 170.545 15.0568 171.888 15.8625 172.579C16.6686 173.27 18.0266 173.189 18.7381 172.402C19.449 171.614 19.5615 170.041 18.4577 169.285Z" fill="#B9D8FF"/>
<path d="M171.831 193.329C170.808 192.629 169.255 192.858 168.487 193.828C167.719 194.799 167.863 196.365 168.803 197.172C169.743 197.978 171.329 197.884 172.158 196.965C172.987 196.045 173.119 194.21 171.831 193.329Z" fill="#B9D8FF"/>
<path d="M140.646 18.4523C109.58 9.29091 73.8947 8.29439 46.8237 26.0132C27.2468 38.8273 14.2591 60.5287 10.3517 83.5209C6.44454 106.513 11.2242 130.559 21.8949 151.319C29.7655 166.631 41.1015 180.589 56.1011 189.133C70.8826 197.553 88.3134 200.255 105.344 200.45C122.156 200.642 139.269 198.455 154.554 191.484C176.643 181.41 193.708 161.366 200.916 138.274C208.124 115.183 205.601 89.4086 194.85 67.7246C184.1 46.0402 166.276 26.0106 140.646 18.4523Z" fill="#FFF2F2"/>
<line x1="12.5502" y1="123.473" x2="70.2407" y2="137.526" stroke="#FFC1C1" stroke-width="5"/>
<line x1="126.077" y1="85.5807" x2="68.3862" y2="138.833" stroke="#FFC1C1" stroke-width="5"/>
<line x1="122.537" y1="85.7538" x2="170.613" y2="33.2406" stroke="#FFC1C1" stroke-width="5"/>
<circle cx="66.6907" cy="136.996" r="7.39623" fill="#FFC1C1"/>
<circle cx="124.381" cy="83.7434" r="7.39623" fill="#FFC1C1"/>
<circle cx="173.196" cy="31.97" r="7.39623" fill="#FFC1C1"/>
<line x1="13.1492" y1="152.24" x2="62.7039" y2="102.685" stroke="url(#paint0_linear_248_2140)" stroke-width="5"/>
<line x1="126.947" y1="114.318" x2="61.86" y2="103.963" stroke="url(#paint1_linear_248_2140)" stroke-width="5"/>
<line x1="125.496" y1="113.859" x2="173.571" y2="61.3455" stroke="url(#paint2_linear_248_2140)" stroke-width="5"/>
<circle cx="62.2529" cy="104.453" r="7.39623" fill="url(#paint3_linear_248_2140)"/>
<circle cx="127.34" cy="111.849" r="7.39623" fill="url(#paint4_linear_248_2140)"/>
<circle cx="176.155" cy="60.0754" r="7.39623" fill="url(#paint5_linear_248_2140)"/>
<defs>
<linearGradient id="paint0_linear_248_2140" x1="23.2551" y1="145.242" x2="27.0711" y2="148.612" gradientUnits="userSpaceOnUse">
<stop stop-color="#ED5858"/>
<stop offset="0.927083" stop-color="#6A1717"/>
</linearGradient>
<linearGradient id="paint1_linear_248_2140" x1="116.06" y1="110.36" x2="116.527" y2="105.292" gradientUnits="userSpaceOnUse">
<stop stop-color="#ED5858"/>
<stop offset="0.927083" stop-color="#6A1717"/>
</linearGradient>
<linearGradient id="paint2_linear_248_2140" x1="135.413" y1="106.281" x2="139.371" y2="109.483" gradientUnits="userSpaceOnUse">
<stop stop-color="#ED5858"/>
<stop offset="0.927083" stop-color="#6A1717"/>
</linearGradient>
<linearGradient id="paint3_linear_248_2140" x1="57.4094" y1="92.5934" x2="73.8634" y2="96.3709" gradientUnits="userSpaceOnUse">
<stop stop-color="#ED5858"/>
<stop offset="0.927083" stop-color="#6A1717"/>
</linearGradient>
<linearGradient id="paint4_linear_248_2140" x1="122.496" y1="99.9894" x2="138.95" y2="103.767" gradientUnits="userSpaceOnUse">
<stop stop-color="#ED5858"/>
<stop offset="0.927083" stop-color="#6A1717"/>
</linearGradient>
<linearGradient id="paint5_linear_248_2140" x1="171.311" y1="48.216" x2="187.765" y2="51.9934" gradientUnits="userSpaceOnUse">
<stop stop-color="#ED5858"/>
<stop offset="0.927083" stop-color="#6A1717"/>
</linearGradient>
</defs>
</svg>
