<svg  viewBox="0 0 45 44" fill="none" xmlns="http://www.w3.org/2000/svg">
<path d="M25.6667 25.5C25.6667 29.09 22.7567 32 19.1667 32C15.5767 32 12.6667 29.09 12.6667 25.5C12.6667 21.91 15.5767 19 19.1667 19C19.3367 19 19.5167 19.01 19.6867 19.02C22.8567 19.27 25.3968 21.81 25.6468 24.98C25.6568 25.15 25.6667 25.33 25.6667 25.5Z" fill="url(#paint0_linear_900_539)"/>
<path opacity="0.4" d="M32.6667 18.5C32.6667 22.09 29.7567 25 26.1667 25C25.9967 25 25.8168 24.99 25.6468 24.98C25.3968 21.81 22.8567 19.27 19.6867 19.02C19.6767 18.85 19.6667 18.67 19.6667 18.5C19.6667 14.91 22.5767 12 26.1667 12C29.7567 12 32.6667 14.91 32.6667 18.5Z" fill="#DA4F4F"/>
<path d="M16.2567 12H13.6667C13.1167 12 12.6667 12.45 12.6667 13V15.59C12.6667 16.48 13.7467 16.93 14.3767 16.3L16.9667 13.71C17.5867 13.08 17.1467 12 16.2567 12Z" fill="url(#paint1_linear_900_539)"/>
<path d="M29.0767 32.0003H31.6667C32.2167 32.0003 32.6667 31.5503 32.6667 31.0003V28.4103C32.6667 27.5203 31.5867 27.0703 30.9567 27.7003L28.3667 30.2903C27.7467 30.9203 28.1867 32.0003 29.0767 32.0003Z" fill="#F0B9B9"/>
<defs>
<linearGradient id="paint0_linear_900_539" x1="14.9101" y1="15.0776" x2="29.3703" y2="18.3973" gradientUnits="userSpaceOnUse">
<stop stop-color="#ED5858"/>
<stop offset="0.927083" stop-color="#6A1717"/>
</linearGradient>
<linearGradient id="paint1_linear_900_539" x1="13.4588" y1="10.6139" x2="18.5643" y2="11.7849" gradientUnits="userSpaceOnUse">
<stop stop-color="#ED5858"/>
<stop offset="0.927083" stop-color="#6A1717"/>
</linearGradient>
</defs>
</svg>
