<svg  viewBox="0 0 14 14" fill="none" xmlns="http://www.w3.org/2000/svg">
<path d="M0.450889 4.12881L6.7683 6.99462C6.95272 7.07842 7.16128 7.07842 7.3457 6.99462L13.6631 4.12881C14.1119 3.92514 14.1119 3.24686 13.6631 3.04319L7.34597 0.177108C7.25536 0.135693 7.1569 0.114258 7.05727 0.114258C6.95764 0.114258 6.85918 0.135693 6.76857 0.177108L0.450889 3.04292C0.00204738 3.24659 0.00204738 3.92514 0.450889 4.12881ZM13.6634 6.523L12.088 5.80892L7.70423 7.79603C7.4992 7.88905 7.28142 7.93624 7.05713 7.93624C6.83285 7.93624 6.61534 7.88905 6.41004 7.79603L2.02658 5.80892L0.450889 6.523C0.00204738 6.7264 0.00204738 7.40441 0.450889 7.60781L6.7683 10.4714C6.95272 10.555 7.16128 10.555 7.3457 10.4714L13.6634 7.60781C14.1122 7.40441 14.1122 6.7264 13.6634 6.523ZM13.6634 9.98898L12.0939 9.27761L7.70423 11.2674C7.4992 11.3605 7.28142 11.4076 7.05713 11.4076C6.83285 11.4076 6.61534 11.3605 6.41004 11.2674L2.02061 9.27761L0.450889 9.98898C0.00204738 10.1924 0.00204738 10.8704 0.450889 11.0738L6.7683 13.9374C6.95272 14.021 7.16128 14.021 7.3457 13.9374L13.6634 11.0738C14.1122 10.8704 14.1122 10.1924 13.6634 9.98898Z" fill="#E35050"/>
</svg>
