<svg  viewBox="0 0 16 16" fill="none" xmlns="http://www.w3.org/2000/svg">
<path d="M0 0H15.83V15.83H0V0Z" fill="white" fill-opacity="0.01"/>
<path d="M0.727273 4.36363L0.402025 3.71312C0.155636 3.83632 0 4.08818 0 4.36363H0.727273ZM8 0.727271L8.32524 0.0767809C8.12051 -0.0255936 7.87949 -0.0255936 7.67476 0.0767809L8 0.727271ZM15.2727 4.36363H16C16 4.08818 15.8444 3.83632 15.598 3.71312L15.2727 4.36363ZM15.2727 11.6364L15.598 12.2869C15.8444 12.1637 16 11.9118 16 11.6364H15.2727ZM8 15.2727L7.67476 15.9232C7.87949 16.0256 8.12051 16.0256 8.32524 15.9232L8 15.2727ZM0.727273 11.6364H0C0 11.9118 0.155636 12.1637 0.402025 12.2869L0.727273 11.6364ZM1.05252 5.01414L8.32524 1.37776L7.67476 0.0767809L0.402025 3.71312L1.05252 5.01414ZM14.5455 4.36363V11.6364H16V4.36363H14.5455ZM14.9475 10.9858L7.67476 14.6222L8.32524 15.9232L15.598 12.2869L14.9475 10.9858ZM8.32524 14.6222L1.05252 10.9858L0.402025 12.2869L7.67476 15.9232L8.32524 14.6222ZM1.45455 11.6364V4.36363H0V11.6364H1.45455ZM15.598 3.71312L8.32524 0.0767809L7.67476 1.37776L14.9475 5.01414L15.598 3.71312Z" fill="#E35050"/>
<path d="M1.31885 4.61719L7.9147 7.91511" stroke="#E35151" stroke-width="1.65" stroke-linecap="round" stroke-linejoin="round"/>
<path d="M7.91504 14.5109V7.91504" stroke="#E35151" stroke-width="1.65" stroke-linecap="round" stroke-linejoin="round"/>
<path d="M14.5109 4.61719L7.91504 7.91511" stroke="#E35151" stroke-width="1.65" stroke-linecap="round" stroke-linejoin="round"/>
<path d="M11.5081 3.5578C11.8339 3.39488 11.966 2.99868 11.8031 2.67286C11.6401 2.34704 11.2439 2.21497 10.9181 2.37788L11.5081 3.5578ZM4.32228 5.67579C3.99645 5.83871 3.8644 6.23492 4.02728 6.56073C4.1902 6.88656 4.58641 7.01861 4.91222 6.85573L4.32228 5.67579ZM10.9181 2.37788L4.32228 5.67579L4.91222 6.85573L11.5081 3.5578L10.9181 2.37788Z" fill="#E35050"/>
</svg>
