<svg viewBox="0 0 25 24" fill="none" xmlns="http://www.w3.org/2000/svg">
<path d="M15.6667 15.5C15.6667 19.09 12.7567 22 9.16675 22C5.57675 22 2.66675 19.09 2.66675 15.5C2.66675 11.91 5.57675 9 9.16675 9C9.33675 9 9.51674 9.01 9.68674 9.02C12.8567 9.27 15.3968 11.81 15.6468 14.98C15.6568 15.15 15.6667 15.33 15.6667 15.5Z" fill="url(#paint0_linear_569_341)"/>
<path opacity="0.4" d="M22.6667 8.5C22.6667 12.09 19.7567 15 16.1667 15C15.9967 15 15.8168 14.99 15.6468 14.98C15.3968 11.81 12.8567 9.27 9.68674 9.02C9.67674 8.85 9.66675 8.67 9.66675 8.5C9.66675 4.91 12.5767 2 16.1667 2C19.7567 2 22.6667 4.91 22.6667 8.5Z" fill="#DA4F4F"/>
<path d="M6.25674 2H3.66675C3.11675 2 2.66675 2.45 2.66675 3V5.59C2.66675 6.48 3.74674 6.93 4.37674 6.3L6.96674 3.71001C7.58674 3.08001 7.14674 2 6.25674 2Z" fill="url(#paint1_linear_569_341)"/>
<path d="M19.0767 21.9998H21.6667C22.2167 21.9998 22.6667 21.5498 22.6667 20.9998V18.4098C22.6667 17.5198 21.5867 17.0698 20.9567 17.6998L18.3667 20.2898C17.7467 20.9198 18.1867 21.9998 19.0767 21.9998Z" fill="#F0B9B9"/>
<defs>
<linearGradient id="paint0_linear_569_341" x1="4.91011" y1="5.07759" x2="19.3703" y2="8.39731" gradientUnits="userSpaceOnUse">
<stop stop-color="#ED5858"/>
<stop offset="0.927083" stop-color="#6A1717"/>
</linearGradient>
<linearGradient id="paint1_linear_569_341" x1="3.45875" y1="0.613875" x2="8.56432" y2="1.78486" gradientUnits="userSpaceOnUse">
<stop stop-color="#ED5858"/>
<stop offset="0.927083" stop-color="#6A1717"/>
</linearGradient>
</defs>
</svg>
