<svg  viewBox="0 0 25 24" fill="none" xmlns="http://www.w3.org/2000/svg">
<path d="M16.1667 15.75C15.9867 15.75 15.7867 15.74 15.5967 15.73C15.2267 15.71 14.9268 15.41 14.8968 15.04C14.6768 12.25 12.4067 9.98999 9.62674 9.76999C9.25674 9.73999 8.95674 9.44001 8.93674 9.07001C8.92674 8.88001 8.91675 8.69 8.91675 8.5C8.91675 4.5 12.1667 1.25 16.1667 1.25C20.1667 1.25 23.4167 4.5 23.4167 8.5C23.4167 12.5 20.1667 15.75 16.1667 15.75ZM10.4167 8.35999C13.3967 8.87999 15.7868 11.27 16.3068 14.25C19.4168 14.17 21.9167 11.63 21.9167 8.5C21.9167 5.33 19.3367 2.75 16.1667 2.75C13.0467 2.75 10.4967 5.24999 10.4167 8.35999Z" fill="#BAC2CC"/>
<path d="M9.16675 22.75C5.16675 22.75 1.91675 19.5 1.91675 15.5C1.91675 11.5 5.16675 8.25 9.16675 8.25C9.34675 8.25 9.54676 8.25999 9.73676 8.26999C13.2668 8.54999 16.1268 11.41 16.3968 14.92C16.4068 15.12 16.4167 15.31 16.4167 15.5C16.4167 19.5 13.1667 22.75 9.16675 22.75ZM9.16675 9.75C5.99675 9.75 3.41675 12.33 3.41675 15.5C3.41675 18.67 5.99675 21.25 9.16675 21.25C12.3367 21.25 14.9167 18.67 14.9167 15.5C14.9167 15.34 14.9068 15.18 14.8968 15.03C14.6768 12.26 12.4167 9.98999 9.62674 9.76999C9.48674 9.75999 9.32675 9.75 9.16675 9.75Z" fill="#BAC2CC"/>
<path d="M3.66675 7.34C3.43675 7.34 3.21673 7.29999 2.99673 7.20999C2.33673 6.93999 1.91675 6.3 1.91675 5.59V3C1.91675 2.04 2.70675 1.25 3.66675 1.25H6.25674C6.96674 1.25 7.59674 1.66999 7.87674 2.32999C8.14674 2.98999 7.99673 3.73999 7.49673 4.23999L4.90674 6.82999C4.56674 7.15999 4.12675 7.34 3.66675 7.34ZM3.66675 2.75C3.52675 2.75 3.41675 2.86 3.41675 3V5.59C3.41675 5.74 3.51674 5.80001 3.56674 5.82001C3.62674 5.84001 3.73676 5.86999 3.83676 5.76999L6.42676 3.17999C6.52676 3.07999 6.50675 2.97 6.47675 2.91C6.44675 2.85 6.38673 2.76001 6.24673 2.76001H3.66675V2.75Z" fill="#BAC2CC"/>
<path d="M21.6666 22.7498H19.0766C18.3666 22.7498 17.7366 22.3298 17.4566 21.6698C17.1866 21.0098 17.3366 20.2598 17.8366 19.7598L20.4266 17.1698C20.9266 16.6698 21.6766 16.5198 22.3366 16.7898C22.9966 17.0598 23.4166 17.6998 23.4166 18.4098V20.9998C23.4166 21.9598 22.6266 22.7498 21.6666 22.7498ZM21.6566 18.1598C21.6066 18.1598 21.5466 18.1798 21.4866 18.2398L18.8966 20.8298C18.7966 20.9298 18.8166 21.0398 18.8466 21.0998C18.8766 21.1598 18.9366 21.2498 19.0766 21.2498H21.6666C21.8066 21.2498 21.9166 21.1398 21.9166 20.9998V18.4098C21.9166 18.2598 21.8166 18.1998 21.7666 18.1798C21.7366 18.1698 21.6966 18.1598 21.6566 18.1598Z" fill="#BAC2CC"/>
</svg>
