<svg  viewBox="0 0 25 24" fill="none" xmlns="http://www.w3.org/2000/svg">
<path d="M18.0733 22.75H6.59325C4.10325 22.75 2.08325 20.73 2.08325 18.24V11.51C2.08325 9.02001 4.10325 7 6.59325 7H18.0733C20.5633 7 22.5833 9.02001 22.5833 11.51V12.95C22.5833 13.36 22.2433 13.7 21.8333 13.7H19.8133C19.4633 13.7 19.1433 13.83 18.9133 14.07L18.9033 14.08C18.6233 14.35 18.4933 14.72 18.5233 15.1C18.5833 15.76 19.2133 16.29 19.9333 16.29H21.8333C22.2433 16.29 22.5833 16.63 22.5833 17.04V18.23C22.5833 20.73 20.5633 22.75 18.0733 22.75ZM6.59325 8.5C4.93325 8.5 3.58325 9.85001 3.58325 11.51V18.24C3.58325 19.9 4.93325 21.25 6.59325 21.25H18.0733C19.7333 21.25 21.0833 19.9 21.0833 18.24V17.8H19.9333C18.4233 17.8 17.1433 16.68 17.0233 15.24C16.9433 14.42 17.2433 13.61 17.8433 13.02C18.3633 12.49 19.0633 12.2 19.8133 12.2H21.0833V11.51C21.0833 9.85001 19.7333 8.5 18.0733 8.5H6.59325Z" fill="#BAC2CC"/>
<path d="M2.83325 13.16C2.42325 13.16 2.08325 12.82 2.08325 12.41V7.84006C2.08325 6.35006 3.02325 5.00001 4.41325 4.47001L12.3533 1.47001C13.1733 1.16001 14.0833 1.27005 14.7933 1.77005C15.5133 2.27005 15.9333 3.08005 15.9333 3.95005V7.75003C15.9333 8.16003 15.5933 8.50003 15.1833 8.50003C14.7733 8.50003 14.4333 8.16003 14.4333 7.75003V3.95005C14.4333 3.57005 14.2533 3.22003 13.9333 3.00003C13.6133 2.78003 13.2333 2.73003 12.8733 2.87003L4.93325 5.87003C4.12325 6.18003 3.57325 6.97006 3.57325 7.84006V12.41C3.58325 12.83 3.24325 13.16 2.83325 13.16Z" fill="#BAC2CC"/>
<path d="M19.9332 17.8002C18.4232 17.8002 17.1432 16.6802 17.0232 15.2402C16.9432 14.4102 17.2432 13.6002 17.8432 13.0102C18.3532 12.4902 19.0532 12.2002 19.8032 12.2002H21.8832C22.8732 12.2302 23.6332 13.0102 23.6332 13.9702V16.0302C23.6332 16.9902 22.8732 17.7702 21.9132 17.8002H19.9332ZM21.8632 13.7002H19.8132C19.4632 13.7002 19.1432 13.8302 18.9132 14.0702C18.6232 14.3502 18.4832 14.7302 18.5232 15.1102C18.5832 15.7702 19.2132 16.3002 19.9332 16.3002H21.8932C22.0232 16.3002 22.1432 16.1802 22.1432 16.0302V13.9702C22.1432 13.8202 22.0232 13.7102 21.8632 13.7002Z" fill="#BAC2CC"/>
<path d="M14.3333 12.75H7.33325C6.92325 12.75 6.58325 12.41 6.58325 12C6.58325 11.59 6.92325 11.25 7.33325 11.25H14.3333C14.7433 11.25 15.0833 11.59 15.0833 12C15.0833 12.41 14.7433 12.75 14.3333 12.75Z" fill="#BAC2CC"/>
</svg>
